{
.appVersion = "895";
DisplayStrings = (
"scozy mugglebe",
"ABCDEFGHIJKLMNOPQRSTUVWXYZabcdefghijklmnopqrstuvwxyz0128/backslash :,!.?\U00BF\"';///quotesingle.alt/emdash -/hyphen_hyphen.liga  $@\U00A9\U00AE"
);
copyright = "Copyright 2016 Jeremy Tribby. SIL OFL License v1.1.";
date = "2016-07-12 00:27:02 +0000";
designer = "Jeremy Tribby";
designerURL = "http://tribby.com/";
familyName = Barlow;
featurePrefixes = (
{
automatic = 1;
code = "languagesystem DFLT dflt;\012";
name = Languagesystems;
}
);
features = (
{
automatic = 1;
code = "sub hyphen hyphen by hyphen_hyphen.liga;\012";
name = liga;
}
);
fontMaster = (
{
alignmentZones = (
"{800, 16}",
"{700, 10}",
"{500, 6}",
"{0, -10}",
"{-200, -12}"
);
ascender = 800;
capHeight = 700;
customParameters = (
{
name = paramArea;
value = "666";
},
{
name = paramDepth;
value = "8";
},
{
name = paramOver;
value = "0";
}
);
descender = -200;
horizontalStems = (
23,
22
);
id = "262880E7-CFE1-4BDA-902E-E24798F3240A";
userData = {
GSCornerRadius = 8;
GSOffsetHorizontal = 11;
GSOffsetMakeStroke = 1;
GSOffsetVertical = 10;
noodleExtremesAndInflections = 1;
noodleRemoveOverlap = 1;
noodleThickness = "22.0";
};
verticalStems = (
22,
21
);
visible = 1;
weight = Light;
weightValue = 23;
xHeight = 500;
},
{
alignmentZones = (
"{800, 16}",
"{700, 11}",
"{500, 9}",
"{0, -11}",
"{-200, -10}"
);
ascender = 800;
capHeight = 700;
customParameters = (
{
name = paramArea;
value = "120";
},
{
name = paramDepth;
value = "60";
},
{
name = paramOver;
value = "2";
}
);
descender = -200;
horizontalStems = (
198,
208
);
id = "4F25946F-63AC-42D6-8D55-01CF6A99025B";
userData = {
GSCornerRadius = 12;
GSOffsetHorizontal = 104;
GSOffsetMakeStroke = 1;
GSOffsetVertical = 102;
noodleExtremesAndInflections = 1;
noodleRemoveOverlap = 1;
noodleThickness = "50.0";
};
verticalStems = (
202,
168
);
visible = 1;
weight = Bold;
weightValue = 202;
xHeight = 500;
}
);
glyphs = (
{
color = 1;
glyphname = A;
lastChange = "2016-10-17 08:10:57 +0000";
layers = (
{
layerId = "262880E7-CFE1-4BDA-902E-E24798F3240A";
paths = (
{
closed = 1;
nodes = (
"154 0 LINE",
"308 656 LINE",
"462 0 LINE",
"484 0 LINE",
"319 700 LINE",
"297 700 LINE",
"132 0 LINE"
);
},
{
closed = 1;
nodes = (
"431 145 LINE",
"431 166 LINE",
"184 166 LINE",
"184 145 LINE"
);
}
);
width = 616;
},
{
layerId = "4F25946F-63AC-42D6-8D55-01CF6A99025B";
paths = (
{
closed = 1;
nodes = (
"244 0 LINE",
"339 450 LINE",
"434 0 LINE",
"657 0 LINE",
"455 700 LINE",
"223 700 LINE",
"21 0 LINE"
);
},
{
closed = 1;
nodes = (
"489 75 LINE",
"489 210 LINE",
"189 210 LINE",
"189 75 LINE"
);
}
);
width = 678;
},
{
associatedMasterId = "262880E7-CFE1-4BDA-902E-E24798F3240A";
layerId = "09B97E43-C149-48A2-81D6-63259EF6020F";
name = "DemiBold{119,100}";
paths = (
{
closed = 1;
nodes = (
"153 0 LINE",
"254 527 LINE",
"355 0 LINE",
"486 0 LINE",
"321 700 LINE",
"187 700 LINE",
"22 0 LINE"
);
},
{
closed = 1;
nodes = (
"391 101 LINE",
"391 212 LINE",
"116 212 LINE",
"116 101 LINE"
);
}
);
width = 508;
}
);
unicode = 0041;
},
{
color = 1;
glyphname = B;
lastChange = "2016-10-17 08:10:56 +0000";
layers = (
{
layerId = "262880E7-CFE1-4BDA-902E-E24798F3240A";
paths = (
{
closed = 1;
nodes = (
"313 351 LINE SMOOTH",
"428 351 OFFCURVE",
"499 415 OFFCURVE",
"499 523 CURVE SMOOTH",
"499 631 OFFCURVE",
"428 700 OFFCURVE",
"313 700 CURVE SMOOTH",
"167 700 LINE",
"167 351 LINE"
);
},
{
closed = 1;
nodes = (
"313 0 LINE SMOOTH",
"428 0 OFFCURVE",
"499 71 OFFCURVE",
"499 186 CURVE SMOOTH",
"499 301 OFFCURVE",
"428 372 OFFCURVE",
"313 372 CURVE SMOOTH",
"167 372 LINE",
"167 0 LINE"
);
},
{
closed = 1;
nodes = (
"189 351 LINE",
"313 351 LINE SMOOTH",
"415 351 OFFCURVE",
"477 288 OFFCURVE",
"477 186 CURVE SMOOTH",
"477 84 OFFCURVE",
"415 22 OFFCURVE",
"313 22 CURVE SMOOTH",
"189 22 LINE"
);
},
{
closed = 1;
nodes = (
"189 679 LINE",
"313 679 LINE SMOOTH",
"415 679 OFFCURVE",
"477 618 OFFCURVE",
"477 523 CURVE SMOOTH",
"477 428 OFFCURVE",
"415 372 OFFCURVE",
"313 372 CURVE SMOOTH",
"189 372 LINE"
);
}
);
width = 645;
},
{
layerId = "4F25946F-63AC-42D6-8D55-01CF6A99025B";
paths = (
{
closed = 1;
nodes = (
"281 308 LINE SMOOTH",
"427 308 OFFCURVE",
"525 386 OFFCURVE",
"525 502 CURVE SMOOTH",
"525 621 OFFCURVE",
"425 700 OFFCURVE",
"276 700 CURVE SMOOTH",
"28 700 LINE",
"28 308 LINE"
);
},
{
closed = 1;
nodes = (
"305 0 LINE SMOOTH",
"450 0 OFFCURVE",
"546 82 OFFCURVE",
"546 205 CURVE SMOOTH",
"546 338 OFFCURVE",
"440 426 OFFCURVE",
"280 426 CURVE",
"28 426 LINE",
"28 0 LINE"
);
},
{
closed = 1;
nodes = (
"221 286 LINE",
"286 286 LINE SMOOTH",
"317 286 OFFCURVE",
"337 266 OFFCURVE",
"337 235 CURVE SMOOTH",
"337 203 OFFCURVE",
"316 182 OFFCURVE",
"285 182 CURVE SMOOTH",
"221 182 LINE"
);
},
{
closed = 1;
nodes = (
"221 536 LINE",
"280 536 LINE",
"309 536 OFFCURVE",
"329 517 OFFCURVE",
"329 489 CURVE SMOOTH",
"329 462 OFFCURVE",
"309 444 OFFCURVE",
"280 444 CURVE",
"221 444 LINE"
);
}
);
width = 567;
}
);
unicode = 0042;
},
{
color = 1;
glyphname = C;
lastChange = "2016-10-17 08:10:55 +0000";
layers = (
{
layerId = "262880E7-CFE1-4BDA-902E-E24798F3240A";
paths = (
{
closed = 1;
nodes = (
"419 -9 OFFCURVE",
"481 50 OFFCURVE",
"481 150 CURVE SMOOTH",
"481 152 LINE",
"459 152 LINE",
"459 150 LINE SMOOTH",
"459 64 OFFCURVE",
"407 11 OFFCURVE",
"320 11 CURVE SMOOTH",
"233 11 OFFCURVE",
"181 64 OFFCURVE",
"181 150 CURVE SMOOTH",
"181 550 LINE SMOOTH",
"181 637 OFFCURVE",
"235 690 OFFCURVE",
"320 690 CURVE SMOOTH",
"405 690 OFFCURVE",
"459 637 OFFCURVE",
"459 550 CURVE SMOOTH",
"459 548 LINE",
"481 548 LINE",
"481 550 LINE SMOOTH",
"481 650 OFFCURVE",
"419 709 OFFCURVE",
"320 709 CURVE SMOOTH",
"221 709 OFFCURVE",
"159 650 OFFCURVE",
"159 550 CURVE SMOOTH",
"159 150 LINE SMOOTH",
"159 50 OFFCURVE",
"221 -9 OFFCURVE",
"320 -9 CURVE SMOOTH"
);
}
);
width = 619;
},
{
layerId = "4F25946F-63AC-42D6-8D55-01CF6A99025B";
paths = (
{
closed = 1;
nodes = (
"435 -10 OFFCURVE",
"537 67 OFFCURVE",
"537 183 CURVE SMOOTH",
"537 278 LINE",
"325 278 LINE",
"325 223 LINE SMOOTH",
"325 196 OFFCURVE",
"307 178 OFFCURVE",
"281 178 CURVE SMOOTH",
"255 178 OFFCURVE",
"237 196 OFFCURVE",
"237 223 CURVE SMOOTH",
"237 477 LINE SMOOTH",
"237 504 OFFCURVE",
"255 522 OFFCURVE",
"281 522 CURVE SMOOTH",
"307 522 OFFCURVE",
"325 504 OFFCURVE",
"325 477 CURVE SMOOTH",
"325 422 LINE",
"537 422 LINE",
"537 517 LINE SMOOTH",
"537 633 OFFCURVE",
"435 710 OFFCURVE",
"281 710 CURVE SMOOTH",
"127 710 OFFCURVE",
"25 633 OFFCURVE",
"25 517 CURVE SMOOTH",
"25 183 LINE SMOOTH",
"25 67 OFFCURVE",
"127 -10 OFFCURVE",
"281 -10 CURVE SMOOTH"
);
}
);
width = 560;
}
);
unicode = 0043;
},
{
color = 1;
glyphname = D;
lastChange = "2016-10-17 08:10:55 +0000";
layers = (
{
layerId = "262880E7-CFE1-4BDA-902E-E24798F3240A";
paths = (
{
closed = 1;
nodes = (
"328 0 LINE SMOOTH",
"428 0 OFFCURVE",
"489 61 OFFCURVE",
"489 161 CURVE SMOOTH",
"489 539 LINE SMOOTH",
"489 639 OFFCURVE",
"428 700 OFFCURVE",
"328 700 CURVE SMOOTH",
"167 700 LINE",
"167 0 LINE"
);
},
{
closed = 1;
nodes = (
"189 679 LINE",
"328 679 LINE SMOOTH",
"414 679 OFFCURVE",
"467 626 OFFCURVE",
"467 539 CURVE SMOOTH",
"467 161 LINE SMOOTH",
"467 75 OFFCURVE",
"414 22 OFFCURVE",
"328 22 CURVE SMOOTH",
"189 22 LINE"
);
}
);
width = 647;
},
{
layerId = "4F25946F-63AC-42D6-8D55-01CF6A99025B";
paths = (
{
closed = 1;
nodes = (
"315 0 LINE SMOOTH",
"446 0 OFFCURVE",
"527 73 OFFCURVE",
"527 193 CURVE SMOOTH",
"527 507 LINE SMOOTH",
"527 627 OFFCURVE",
"446 700 OFFCURVE",
"315 700 CURVE SMOOTH",
"28 700 LINE",
"28 0 LINE"
);
},
{
closed = 1;
nodes = (
"236 526 LINE",
"271 526 LINE SMOOTH",
"298 526 OFFCURVE",
"315 509 OFFCURVE",
"315 481 CURVE SMOOTH",
"315 219 LINE SMOOTH",
"315 191 OFFCURVE",
"298 174 OFFCURVE",
"271 174 CURVE SMOOTH",
"236 174 LINE"
);
}
);
width = 552;
},
{
associatedMasterId = "262880E7-CFE1-4BDA-902E-E24798F3240A";
layerId = "5FA87B53-3B99-492D-B797-6707203108CA";
name = "DemiBold{119,100}";
paths = (
{
closed = 1;
nodes = (
"324 0 LINE SMOOTH",
"441 0 OFFCURVE",
"513 67 OFFCURVE",
"513 178 CURVE SMOOTH",
"513 522 LINE SMOOTH",
"513 633 OFFCURVE",
"441 700 OFFCURVE",
"324 700 CURVE SMOOTH",
"106 700 LINE",
"106 0 LINE"
);
},
{
closed = 1;
nodes = (
"228 597 LINE",
"301 597 LINE SMOOTH",
"355 597 OFFCURVE",
"389 563 OFFCURVE",
"389 508 CURVE SMOOTH",
"389 192 LINE SMOOTH",
"389 137 OFFCURVE",
"355 104 OFFCURVE",
"301 104 CURVE SMOOTH",
"228 104 LINE"
);
}
);
width = 604;
}
);
unicode = 0044;
},
{
color = 1;
glyphname = E;
lastChange = "2016-10-17 08:10:56 +0000";
layers = (
{
layerId = "262880E7-CFE1-4BDA-902E-E24798F3240A";
paths = (
{
closed = 1;
nodes = (
"488 0 LINE",
"488 22 LINE",
"189 22 LINE",
"189 679 LINE",
"488 679 LINE",
"488 700 LINE",
"167 700 LINE",
"167 0 LINE"
);
},
{
closed = 1;
nodes = (
"383 340 LINE",
"383 361 LINE",
"178 361 LINE",
"178 340 LINE"
);
}
);
width = 619;
},
{
layerId = "4F25946F-63AC-42D6-8D55-01CF6A99025B";
paths = (
{
closed = 1;
nodes = (
"490 0 LINE",
"490 188 LINE",
"236 188 LINE",
"236 512 LINE",
"490 512 LINE",
"490 700 LINE",
"28 700 LINE",
"28 0 LINE"
);
},
{
closed = 1;
nodes = (
"380 266 LINE",
"380 434 LINE",
"150 434 LINE",
"150 266 LINE"
);
}
);
width = 515;
},
{
associatedMasterId = "262880E7-CFE1-4BDA-902E-E24798F3240A";
layerId = "DE3E8A9A-5DAD-493A-9E98-F56387BAB1C1";
name = "DemiBold{119,100}";
paths = (
{
closed = 1;
nodes = (
"494 0 LINE",
"494 111 LINE",
"229 111 LINE",
"229 589 LINE",
"494 589 LINE",
"494 700 LINE",
"105 700 LINE",
"105 0 LINE"
);
},
{
closed = 1;
nodes = (
"386 300 LINE",
"386 400 LINE",
"177 400 LINE",
"177 300 LINE"
);
}
);
width = 559;
}
);
unicode = 0045;
},
{
color = 1;
glyphname = F;
lastChange = "2016-10-17 08:10:55 +0000";
layers = (
{
layerId = "262880E7-CFE1-4BDA-902E-E24798F3240A";
paths = (
{
closed = 1;
nodes = (
"189 0 LINE",
"189 679 LINE",
"488 679 LINE",
"488 700 LINE",
"167 700 LINE",
"167 0 LINE"
);
},
{
closed = 1;
nodes = (
"383 340 LINE",
"383 361 LINE",
"178 361 LINE",
"178 340 LINE"
);
}
);
width = 617;
},
{
layerId = "4F25946F-63AC-42D6-8D55-01CF6A99025B";
paths = (
{
closed = 1;
nodes = (
"236 0 LINE",
"236 512 LINE",
"504 512 LINE",
"504 700 LINE",
"28 700 LINE",
"28 0 LINE"
);
},
{
closed = 1;
nodes = (
"392 266 LINE",
"392 434 LINE",
"149 434 LINE",
"149 266 LINE"
);
}
);
width = 527;
},
{
associatedMasterId = "262880E7-CFE1-4BDA-902E-E24798F3240A";
layerId = "E70C252C-4698-4A26-900C-4F3FD049D2BA";
name = "DemiBold{119,100}";
paths = (
{
closed = 1;
nodes = (
"232 0 LINE",
"232 589 LINE",
"493 589 LINE",
"493 700 LINE",
"106 700 LINE",
"106 0 LINE"
);
},
{
closed = 1;
nodes = (
"385 300 LINE",
"385 400 LINE",
"180 400 LINE",
"180 300 LINE"
);
}
);
width = 544;
}
);
unicode = 0046;
},
{
color = 1;
glyphname = G;
lastChange = "2016-10-17 08:10:57 +0000";
layers = (
{
layerId = "262880E7-CFE1-4BDA-902E-E24798F3240A";
paths = (
{
closed = 1;
nodes = (
"419 -9 OFFCURVE",
"481 51 OFFCURVE",
"481 150 CURVE",
"481 361 LINE",
"320 361 LINE",
"320 340 LINE",
"459 340 LINE",
"459 150 LINE",
"459 63 OFFCURVE",
"407 11 OFFCURVE",
"320 11 CURVE SMOOTH",
"233 11 OFFCURVE",
"181 63 OFFCURVE",
"181 150 CURVE",
"181 550 LINE",
"181 637 OFFCURVE",
"233 690 OFFCURVE",
"320 690 CURVE SMOOTH",
"407 690 OFFCURVE",
"459 637 OFFCURVE",
"459 550 CURVE",
"481 550 LINE",
"481 649 OFFCURVE",
"419 709 OFFCURVE",
"320 709 CURVE SMOOTH",
"221 709 OFFCURVE",
"159 649 OFFCURVE",
"159 550 CURVE",
"159 150 LINE",
"159 51 OFFCURVE",
"221 -9 OFFCURVE",
"320 -9 CURVE SMOOTH"
);
}
);
width = 631;
},
{
layerId = "4F25946F-63AC-42D6-8D55-01CF6A99025B";
paths = (
{
closed = 1;
nodes = (
"434 -10 OFFCURVE",
"536 88 OFFCURVE",
"536 234 CURVE SMOOTH",
"536 400 LINE",
"280 400 LINE",
"280 270 LINE",
"324 270 LINE",
"324 234 LINE SMOOTH",
"324 200 OFFCURVE",
"306 178 OFFCURVE",
"280 178 CURVE SMOOTH",
"254 178 OFFCURVE",
"236 200 OFFCURVE",
"236 234 CURVE SMOOTH",
"236 466 LINE SMOOTH",
"236 500 OFFCURVE",
"254 522 OFFCURVE",
"280 522 CURVE SMOOTH",
"306 522 OFFCURVE",
"324 500 OFFCURVE",
"324 466 CURVE",
"536 466 LINE",
"536 612 OFFCURVE",
"434 710 OFFCURVE",
"280 710 CURVE SMOOTH",
"126 710 OFFCURVE",
"24 612 OFFCURVE",
"24 466 CURVE SMOOTH",
"24 234 LINE SMOOTH",
"24 88 OFFCURVE",
"126 -10 OFFCURVE",
"280 -10 CURVE SMOOTH"
);
}
);
width = 559;
},
{
associatedMasterId = "262880E7-CFE1-4BDA-902E-E24798F3240A";
layerId = "4BB53C67-4989-441E-8A0D-7E4F5FC64094";
name = "Medium {91, 100}";
paths = (
{
closed = 1;
nodes = (
"426 -9 OFFCURVE",
"504 65 OFFCURVE",
"504 182 CURVE",
"504 376 LINE",
"307 376 LINE",
"307 290 LINE",
"410 290 LINE",
"410 182 LINE",
"410 115 OFFCURVE",
"370 74 OFFCURVE",
"307 74 CURVE SMOOTH",
"243 74 OFFCURVE",
"204 115 OFFCURVE",
"204 182 CURVE",
"204 518 LINE",
"204 585 OFFCURVE",
"243 626 OFFCURVE",
"307 626 CURVE SMOOTH",
"370 626 OFFCURVE",
"410 585 OFFCURVE",
"410 518 CURVE",
"504 518 LINE",
"504 635 OFFCURVE",
"426 709 OFFCURVE",
"307 709 CURVE SMOOTH",
"187 709 OFFCURVE",
"110 635 OFFCURVE",
"110 518 CURVE",
"110 182 LINE",
"110 65 OFFCURVE",
"187 -9 OFFCURVE",
"307 -9 CURVE SMOOTH"
);
}
);
width = 602;
}
);
unicode = 0047;
},
{
color = 1;
glyphname = H;
lastChange = "2016-10-17 08:10:57 +0000";
layers = (
{
layerId = "262880E7-CFE1-4BDA-902E-E24798F3240A";
paths = (
{
closed = 1;
nodes = (
"489 0 LINE",
"489 700 LINE",
"467 700 LINE",
"467 0 LINE"
);
},
{
closed = 1;
nodes = (
"189 0 LINE",
"189 700 LINE",
"167 700 LINE",
"167 0 LINE"
);
},
{
closed = 1;
nodes = (
"472 340 LINE",
"472 361 LINE",
"184 361 LINE",
"184 340 LINE"
);
}
);
width = 656;
},
{
layerId = "4F25946F-63AC-42D6-8D55-01CF6A99025B";
paths = (
{
closed = 1;
nodes = (
"536 0 LINE",
"536 700 LINE",
"326 700 LINE",
"326 0 LINE"
);
},
{
closed = 1;
nodes = (
"238 0 LINE",
"238 700 LINE",
"28 700 LINE",
"28 0 LINE"
);
},
{
closed = 1;
nodes = (
"342 246 LINE",
"342 434 LINE",
"222 434 LINE",
"222 246 LINE"
);
}
);
width = 564;
}
);
unicode = 0048;
},
{
color = 1;
glyphname = I;
lastChange = "2016-10-17 08:10:55 +0000";
layers = (
{
layerId = "262880E7-CFE1-4BDA-902E-E24798F3240A";
paths = (
{
closed = 1;
nodes = (
"189 0 LINE",
"189 700 LINE",
"167 700 LINE",
"167 0 LINE"
);
}
);
width = 356;
},
{
layerId = "4F25946F-63AC-42D6-8D55-01CF6A99025B";
paths = (
{
closed = 1;
nodes = (
"230 0 LINE",
"230 700 LINE",
"28 700 LINE",
"28 0 LINE"
);
}
);
width = 258;
}
);
unicode = 0049;
},
{
color = 1;
glyphname = J;
lastChange = "2016-10-17 08:10:55 +0000";
layers = (
{
layerId = "262880E7-CFE1-4BDA-902E-E24798F3240A";
paths = (
{
closed = 1;
nodes = (
"391 -11 OFFCURVE",
"451 50 OFFCURVE",
"451 150 CURVE SMOOTH",
"451 700 LINE",
"429 700 LINE",
"429 150 LINE",
"429 64 OFFCURVE",
"377 11 OFFCURVE",
"293 11 CURVE SMOOTH",
"209 11 OFFCURVE",
"157 64 OFFCURVE",
"157 150 CURVE SMOOTH",
"157 195 LINE",
"135 195 LINE",
"135 150 LINE SMOOTH",
"135 50 OFFCURVE",
"195 -11 OFFCURVE",
"293 -11 CURVE SMOOTH"
);
}
);
width = 614;
},
{
layerId = "4F25946F-63AC-42D6-8D55-01CF6A99025B";
paths = (
{
closed = 1;
nodes = (
"424 -10 OFFCURVE",
"524 88 OFFCURVE",
"524 235 CURVE",
"519 702 LINE",
"307 700 LINE",
"312 233 LINE",
"312 200 OFFCURVE",
"296 178 OFFCURVE",
"273 178 CURVE SMOOTH",
"250 178 OFFCURVE",
"234 200 OFFCURVE",
"234 234 CURVE SMOOTH",
"234 290 LINE",
"22 290 LINE",
"22 234 LINE SMOOTH",
"22 88 OFFCURVE",
"122 -10 OFFCURVE",
"273 -10 CURVE SMOOTH"
);
}
);
width = 548;
}
);
unicode = 004A;
},
{
color = 1;
glyphname = K;
lastChange = "2016-10-17 08:10:55 +0000";
layers = (
{
layerId = "262880E7-CFE1-4BDA-902E-E24798F3240A";
paths = (
{
closed = 1;
nodes = (
"499 0 LINE",
"203 350 LINE",
"499 700 LINE",
"473 700 LINE",
"175 350 LINE",
"473 0 LINE"
);
},
{
closed = 1;
nodes = (
"189 0 LINE",
"189 700 LINE",
"167 700 LINE",
"167 0 LINE"
);
}
);
width = 629;
},
{
layerId = "4F25946F-63AC-42D6-8D55-01CF6A99025B";
paths = (
{
closed = 1;
nodes = (
"559 0 LINE",
"384 350 LINE",
"556 700 LINE",
"306 700 LINE",
"166 350 LINE",
"306 0 LINE"
);
},
{
closed = 1;
nodes = (
"236 0 LINE",
"236 700 LINE",
"28 700 LINE",
"28 0 LINE"
);
}
);
width = 580;
},
{
associatedMasterId = "262880E7-CFE1-4BDA-902E-E24798F3240A";
layerId = "52A147BE-A087-4D72-9A5D-908B44B10E17";
name = "Medium {91, 100}";
paths = (
{
closed = 1;
nodes = (
"524 0 LINE",
"260 350 LINE",
"522 700 LINE",
"407 700 LINE",
"142 350 LINE",
"407 0 LINE"
);
},
{
closed = 1;
nodes = (
"218 0 LINE",
"218 700 LINE",
"124 700 LINE",
"124 0 LINE"
);
}
);
width = 589;
},
{
associatedMasterId = "4F25946F-63AC-42D6-8D55-01CF6A99025B";
layerId = "57219196-2667-4E9B-A894-DD00D1913D76";
name = "Bold Oct 15 16, 02:53";
paths = (
{
closed = 1;
nodes = (
"590 0 LINE",
"413 350 LINE",
"585 700 LINE",
"335 700 LINE",
"193 350 LINE",
"335 0 LINE"
);
},
{
closed = 1;
nodes = (
"265 0 LINE",
"265 700 LINE",
"57 700 LINE",
"57 0 LINE"
);
}
);
width = 593;
}
);
unicode = 004B;
},
{
color = 1;
glyphname = L;
lastChange = "2016-10-17 08:10:55 +0000";
layers = (
{
layerId = "262880E7-CFE1-4BDA-902E-E24798F3240A";
paths = (
{
closed = 1;
nodes = (
"478 0 LINE",
"478 22 LINE",
"189 22 LINE",
"189 700 LINE",
"167 700 LINE",
"167 0 LINE"
);
}
);
width = 607;
},
{
layerId = "4F25946F-63AC-42D6-8D55-01CF6A99025B";
paths = (
{
closed = 1;
nodes = (
"485 0 LINE",
"485 192 LINE",
"236 192 LINE",
"236 700 LINE",
"28 700 LINE",
"28 0 LINE"
);
}
);
width = 508;
}
);
unicode = 004C;
},
{
color = 1;
glyphname = M;
lastChange = "2016-10-17 08:10:55 +0000";
layers = (
{
layerId = "262880E7-CFE1-4BDA-902E-E24798F3240A";
paths = (
{
closed = 1;
nodes = (
"186 0 LINE",
"189 655 LINE",
"346 324 LINE",
"504 655 LINE",
"504 0 LINE",
"525 0 LINE",
"525 700 LINE",
"503 700 LINE",
"346 372 LINE",
"189 700 LINE",
"167 700 LINE",
"167 0 LINE"
);
}
);
width = 692;
},
{
layerId = "4F25946F-63AC-42D6-8D55-01CF6A99025B";
paths = (
{
closed = 1;
nodes = (
"240 0 LINE",
"240 364 LINE",
"322 232 LINE",
"404 364 LINE",
"404 0 LINE",
"616 0 LINE",
"616 698 LINE",
"410 698 LINE",
"322 522 LINE",
"231 702 LINE",
"28 702 LINE",
"28 0 LINE"
);
}
);
width = 644;
},
{
associatedMasterId = "4F25946F-63AC-42D6-8D55-01CF6A99025B";
layerId = "BF6C6FBC-ABCF-4728-B32F-BE7F013B92F9";
name = "Medium {91, 100}";
paths = (
{
closed = 1;
nodes = (
"216 0 LINE",
"218 503 LINE",
"346 261 LINE",
"476 503 LINE",
"476 0 LINE",
"569 0 LINE",
"569 699 LINE",
"477 699 LINE",
"346 423 LINE",
"214 701 LINE",
"124 701 LINE",
"124 0 LINE"
);
}
);
width = 693;
}
);
unicode = 004D;
},
{
color = 1;
glyphname = N;
lastChange = "2016-10-17 08:10:56 +0000";
layers = (
{
layerId = "262880E7-CFE1-4BDA-902E-E24798F3240A";
paths = (
{
closed = 1;
nodes = (
"189 0 LINE",
"189 647 LINE",
"466 0 LINE",
"489 0 LINE",
"489 700 LINE",
"467 700 LINE",
"467 53 LINE",
"190 700 LINE",
"167 700 LINE",
"167 0 LINE"
);
}
);
width = 656;
},
{
layerId = "4F25946F-63AC-42D6-8D55-01CF6A99025B";
paths = (
{
closed = 1;
nodes = (
"228 0 LINE",
"231 269 LINE",
"379 0 LINE",
"543 0 LINE",
"543 700 LINE",
"346 700 LINE",
"346 404 LINE",
"192 700 LINE",
"28 700 LINE",
"28 0 LINE"
);
}
);
width = 571;
},
{
associatedMasterId = "4F25946F-63AC-42D6-8D55-01CF6A99025B";
layerId = "0B1885C1-B30B-43AF-BA88-F41889FEAFD7";
name = "DemiBold{119,100}";
paths = (
{
closed = 1;
nodes = (
"218 0 LINE",
"220 393 LINE",
"427 0 LINE",
"526.006 0 LINE",
"526.006 700 LINE",
"410 700 LINE",
"410 284 LINE",
"199 700 LINE",
"100 700 LINE",
"100 0 LINE"
);
}
);
width = 627;
}
);
unicode = 004E;
},
{
color = 1;
glyphname = O;
lastChange = "2016-10-17 08:10:57 +0000";
layers = (
{
layerId = "262880E7-CFE1-4BDA-902E-E24798F3240A";
paths = (
{
closed = 1;
nodes = (
"408 -9 OFFCURVE",
"480 60 OFFCURVE",
"480 150 CURVE SMOOTH",
"480 550 LINE SMOOTH",
"480 640 OFFCURVE",
"408 709 OFFCURVE",
"319 709 CURVE SMOOTH",
"230 709 OFFCURVE",
"158 640 OFFCURVE",
"158 550 CURVE SMOOTH",
"158 150 LINE SMOOTH",
"158 60 OFFCURVE",
"230 -9 OFFCURVE",
"319 -9 CURVE SMOOTH"
);
},
{
closed = 1;
nodes = (
"240 11 OFFCURVE",
"180 72 OFFCURVE",
"180 150 CURVE SMOOTH",
"180 550 LINE SMOOTH",
"180 629 OFFCURVE",
"242 690 OFFCURVE",
"319 690 CURVE SMOOTH",
"396 690 OFFCURVE",
"458 629 OFFCURVE",
"458 550 CURVE SMOOTH",
"458 150 LINE SMOOTH",
"458 72 OFFCURVE",
"398 11 OFFCURVE",
"319 11 CURVE SMOOTH"
);
}
);
width = 638;
},
{
layerId = "4F25946F-63AC-42D6-8D55-01CF6A99025B";
paths = (
{
closed = 1;
nodes = (
"440 -10 OFFCURVE",
"544 87 OFFCURVE",
"544 233 CURVE SMOOTH",
"544 467 LINE SMOOTH",
"544 613 OFFCURVE",
"440 710 OFFCURVE",
"284 710 CURVE SMOOTH",
"128 710 OFFCURVE",
"24 613 OFFCURVE",
"24 467 CURVE SMOOTH",
"24 233 LINE SMOOTH",
"24 87 OFFCURVE",
"128 -10 OFFCURVE",
"284 -10 CURVE SMOOTH"
);
},
{
closed = 1;
nodes = (
"255 174 OFFCURVE",
"236 194 OFFCURVE",
"236 223 CURVE SMOOTH",
"236 477 LINE SMOOTH",
"236 506 OFFCURVE",
"255 526 OFFCURVE",
"284 526 CURVE SMOOTH",
"313 526 OFFCURVE",
"332 506 OFFCURVE",
"332 477 CURVE SMOOTH",
"332 223 LINE SMOOTH",
"332 194 OFFCURVE",
"313 174 OFFCURVE",
"284 174 CURVE SMOOTH"
);
}
);
width = 568;
}
);
unicode = 004F;
},
{
color = 1;
glyphname = P;
lastChange = "2016-10-17 08:10:56 +0000";
layers = (
{
layerId = "262880E7-CFE1-4BDA-902E-E24798F3240A";
paths = (
{
closed = 1;
nodes = (
"189 0 LINE",
"189 679 LINE",
"313 679 LINE SMOOTH",
"413 679 OFFCURVE",
"474 616 OFFCURVE",
"474 513 CURVE SMOOTH",
"474 409 OFFCURVE",
"413 346 OFFCURVE",
"313 346 CURVE SMOOTH",
"184 346 LINE",
"184 324 LINE",
"313 325 LINE SMOOTH",
"426 326 OFFCURVE",
"496 397 OFFCURVE",
"496 512 CURVE SMOOTH",
"496 629 OFFCURVE",
"426 700 OFFCURVE",
"313 700 CURVE SMOOTH",
"167 700 LINE",
"167 0 LINE"
);
}
);
width = 633;
},
{
layerId = "4F25946F-63AC-42D6-8D55-01CF6A99025B";
paths = (
{
closed = 1;
nodes = (
"240 0 LINE",
"240 512 LINE",
"269 512 LINE SMOOTH",
"298 512 OFFCURVE",
"318 492 OFFCURVE",
"318 462 CURVE SMOOTH",
"318 432 OFFCURVE",
"298 412 OFFCURVE",
"269 412 CURVE SMOOTH",
"224 412 LINE",
"224 233 LINE",
"308 233 LINE SMOOTH",
"441 233 OFFCURVE",
"530 326 OFFCURVE",
"530 465 CURVE SMOOTH",
"530 606 OFFCURVE",
"438 700 OFFCURVE",
"299 700 CURVE SMOOTH",
"28 700 LINE",
"28 0 LINE"
);
}
);
width = 551;
}
);
unicode = 0050;
},
{
color = 1;
glyphname = Q;
lastChange = "2016-10-17 08:10:56 +0000";
layers = (
{
layerId = "262880E7-CFE1-4BDA-902E-E24798F3240A";
paths = (
{
closed = 1;
nodes = (
"408 -11 OFFCURVE",
"480 60 OFFCURVE",
"480 150 CURVE SMOOTH",
"480 550 LINE SMOOTH",
"480 640 OFFCURVE",
"408 711 OFFCURVE",
"319 711 CURVE SMOOTH",
"230 711 OFFCURVE",
"158 640 OFFCURVE",
"158 550 CURVE SMOOTH",
"158 150 LINE SMOOTH",
"158 60 OFFCURVE",
"230 -11 OFFCURVE",
"319 -11 CURVE SMOOTH"
);
},
{
closed = 1;
nodes = (
"497 -41 LINE",
"288 11 LINE",
"283 -7 LINE",
"490 -65 LINE"
);
},
{
closed = 1;
nodes = (
"240 11 OFFCURVE",
"180 72 OFFCURVE",
"180 150 CURVE SMOOTH",
"180 550 LINE SMOOTH",
"180 629 OFFCURVE",
"242 690 OFFCURVE",
"319 690 CURVE SMOOTH",
"396 690 OFFCURVE",
"458 629 OFFCURVE",
"458 550 CURVE SMOOTH",
"458 150 LINE SMOOTH",
"458 72 OFFCURVE",
"398 11 OFFCURVE",
"319 11 CURVE SMOOTH"
);
}
);
width = 639;
},
{
layerId = "4F25946F-63AC-42D6-8D55-01CF6A99025B";
paths = (
{
closed = 1;
nodes = (
"434 -10 OFFCURVE",
"536 87 OFFCURVE",
"536 233 CURVE SMOOTH",
"536 467 LINE SMOOTH",
"536 613 OFFCURVE",
"434 710 OFFCURVE",
"280 710 CURVE SMOOTH",
"126 710 OFFCURVE",
"24 613 OFFCURVE",
"24 467 CURVE SMOOTH",
"24 233 LINE SMOOTH",
"24 87 OFFCURVE",
"126 -10 OFFCURVE",
"280 -10 CURVE SMOOTH"
);
},
{
closed = 1;
nodes = (
"552 113 LINE",
"228 118 LINE",
"228 -6 LINE",
"544 -43 LINE"
);
},
{
closed = 1;
nodes = (
"254 178 OFFCURVE",
"236 196 OFFCURVE",
"236 223 CURVE SMOOTH",
"236 477 LINE SMOOTH",
"236 504 OFFCURVE",
"254 522 OFFCURVE",
"280 522 CURVE SMOOTH",
"306 522 OFFCURVE",
"324 504 OFFCURVE",
"324 477 CURVE SMOOTH",
"324 223 LINE SMOOTH",
"324 196 OFFCURVE",
"306 178 OFFCURVE",
"280 178 CURVE SMOOTH"
);
}
);
width = 573;
}
);
unicode = 0051;
},
{
color = 1;
glyphname = R;
lastChange = "2016-10-17 08:10:56 +0000";
layers = (
{
layerId = "262880E7-CFE1-4BDA-902E-E24798F3240A";
paths = (
{
closed = 1;
nodes = (
"189 0 LINE",
"189 679 LINE",
"316 679 LINE SMOOTH",
"416 679 OFFCURVE",
"477 616 OFFCURVE",
"477 512 CURVE SMOOTH",
"477 408 OFFCURVE",
"416 344 OFFCURVE",
"316 344 CURVE SMOOTH",
"184 344 LINE",
"184 322 LINE",
"316 323 LINE SMOOTH",
"429 324 OFFCURVE",
"499 395 OFFCURVE",
"499 511 CURVE SMOOTH",
"499 628 OFFCURVE",
"429 700 OFFCURVE",
"316 700 CURVE SMOOTH",
"167 700 LINE",
"167 0 LINE"
);
},
{
closed = 1;
nodes = (
"457 0 LINE",
"338 340 LINE",
"318 332 LINE",
"433 0 LINE"
);
}
);
width = 636;
},
{
layerId = "4F25946F-63AC-42D6-8D55-01CF6A99025B";
paths = (
{
closed = 1;
nodes = (
"230 0 LINE",
"230 512 LINE",
"282 512 LINE SMOOTH",
"311 512 OFFCURVE",
"331 492 OFFCURVE",
"331 462 CURVE SMOOTH",
"331 432 OFFCURVE",
"311 412 OFFCURVE",
"282 412 CURVE SMOOTH",
"214 412 LINE",
"214 259 LINE",
"374 259 LINE SMOOTH",
"483 259 OFFCURVE",
"555 343 OFFCURVE",
"555 469 CURVE SMOOTH",
"555 608 OFFCURVE",
"471 700 OFFCURVE",
"344 700 CURVE SMOOTH",
"28 700 LINE",
"28 0 LINE"
);
},
{
closed = 1;
nodes = (
"570 0 LINE",
"397 320 LINE",
"181 320 LINE",
"332 0 LINE"
);
}
);
width = 591;
},
{
associatedMasterId = "4F25946F-63AC-42D6-8D55-01CF6A99025B";
layerId = "226A43B5-5CBD-42C7-8731-3A5BF7E3E8A0";
name = "Medium{91,100}";
paths = (
{
closed = 1;
nodes = (
"215 0 LINE",
"215 616 LINE",
"328 616 LINE SMOOTH",
"399 616 OFFCURVE",
"446 567 OFFCURVE",
"446 493 CURVE SMOOTH",
"446 419 OFFCURVE",
"399 370 OFFCURVE",
"328 370 CURVE SMOOTH",
"205 370 LINE",
"205 284 LINE",
"348 285 LINE SMOOTH",
"457 286 OFFCURVE",
"530 369 OFFCURVE",
"530 492 CURVE SMOOTH",
"530 619 OFFCURVE",
"453 700 OFFCURVE",
"337 700 CURVE SMOOTH",
"124 700 LINE",
"124 0 LINE"
);
},
{
closed = 1;
nodes = (
"504 0 LINE",
"374 332 LINE",
"280 327 LINE",
"398 0 LINE"
);
}
);
width = 610;
}
);
unicode = 0052;
},
{
color = 1;
glyphname = S;
lastChange = "2016-10-17 08:10:56 +0000";
layers = (
{
layerId = "262880E7-CFE1-4BDA-902E-E24798F3240A";
paths = (
{
closed = 1;
nodes = (
"404 -9 OFFCURVE",
"466 50 OFFCURVE",
"466 149 CURVE SMOOTH",
"466 255 OFFCURVE",
"394 306 OFFCURVE",
"311 361 CURVE SMOOTH",
"228 416 OFFCURVE",
"166 459 OFFCURVE",
"166 552 CURVE SMOOTH",
"166 636 OFFCURVE",
"218 690 OFFCURVE",
"302 690 CURVE SMOOTH",
"386 690 OFFCURVE",
"438 637 OFFCURVE",
"438 550 CURVE SMOOTH",
"438 500 LINE",
"460 500 LINE",
"460 550 LINE SMOOTH",
"460 650 OFFCURVE",
"400 709 OFFCURVE",
"302 709 CURVE SMOOTH",
"204 709 OFFCURVE",
"144 649 OFFCURVE",
"144 553 CURVE SMOOTH",
"144 446 OFFCURVE",
"219 394 OFFCURVE",
"297 342 CURVE SMOOTH",
"374 291 OFFCURVE",
"444 244 OFFCURVE",
"444 148 CURVE SMOOTH",
"444 63 OFFCURVE",
"390 11 OFFCURVE",
"303 11 CURVE SMOOTH",
"216 11 OFFCURVE",
"166 64 OFFCURVE",
"166 150 CURVE SMOOTH",
"166 210 LINE",
"146 210 LINE",
"146 150 LINE SMOOTH",
"146 50 OFFCURVE",
"203 -9 OFFCURVE",
"304 -9 CURVE SMOOTH"
);
}
);
width = 609;
},
{
layerId = "4F25946F-63AC-42D6-8D55-01CF6A99025B";
paths = (
{
closed = 1;
nodes = (
"440 -10 OFFCURVE",
"534 74 OFFCURVE",
"534 200 CURVE SMOOTH",
"534 312 OFFCURVE",
"460 381 OFFCURVE",
"347 425 CURVE SMOOTH",
"301 443 OFFCURVE",
"248 456 OFFCURVE",
"248 489 CURVE SMOOTH",
"248 503 OFFCURVE",
"258 518 OFFCURVE",
"282 518 CURVE SMOOTH",
"308 518 OFFCURVE",
"323 501 OFFCURVE",
"323 479 CURVE SMOOTH",
"323 464 LINE",
"535 474 LINE",
"535 479 LINE SMOOTH",
"535 617 OFFCURVE",
"428 710 OFFCURVE",
"276 710 CURVE SMOOTH",
"129 710 OFFCURVE",
"33 624 OFFCURVE",
"33 498 CURVE SMOOTH",
"33 389 OFFCURVE",
"106 318 OFFCURVE",
"220 275 CURVE SMOOTH",
"262 259 OFFCURVE",
"318 245 OFFCURVE",
"318 214 CURVE SMOOTH",
"318 201 OFFCURVE",
"309 182 OFFCURVE",
"283 182 CURVE SMOOTH",
"259 182 OFFCURVE",
"244 199 OFFCURVE",
"244 231 CURVE SMOOTH",
"244 236 LINE",
"21 226 LINE",
"21 221 LINE SMOOTH",
"21 83 OFFCURVE",
"127 -10 OFFCURVE",
"287 -10 CURVE SMOOTH"
);
}
);
width = 557;
}
);
unicode = 0053;
},
{
color = 1;
glyphname = T;
lastChange = "2016-10-17 08:10:56 +0000";
layers = (
{
layerId = "262880E7-CFE1-4BDA-902E-E24798F3240A";
paths = (
{
closed = 1;
nodes = (
"297 0 LINE",
"297 689 LINE",
"275 689 LINE",
"275 0 LINE"
);
},
{
closed = 1;
nodes = (
"451 679 LINE",
"451 700 LINE",
"129 700 LINE",
"129 679 LINE"
);
}
);
width = 580;
},
{
layerId = "4F25946F-63AC-42D6-8D55-01CF6A99025B";
paths = (
{
closed = 1;
nodes = (
"383 0 LINE",
"383 606 LINE",
"171 606 LINE",
"171 0 LINE"
);
},
{
closed = 1;
nodes = (
"531 500 LINE",
"531 700 LINE",
"23 700 LINE",
"23 500 LINE"
);
}
);
width = 554;
}
);
unicode = 0054;
},
{
color = 1;
glyphname = U;
lastChange = "2016-10-17 08:10:56 +0000";
layers = (
{
layerId = "262880E7-CFE1-4BDA-902E-E24798F3240A";
paths = (
{
closed = 1;
nodes = (
"423 -9 OFFCURVE",
"485 50 OFFCURVE",
"485 150 CURVE SMOOTH",
"485 700 LINE",
"463 700 LINE",
"463 150 LINE SMOOTH",
"463 64 OFFCURVE",
"411 11 OFFCURVE",
"324 11 CURVE SMOOTH",
"237 11 OFFCURVE",
"185 64 OFFCURVE",
"185 150 CURVE SMOOTH",
"185 700 LINE",
"163 700 LINE",
"163 150 LINE SMOOTH",
"163 50 OFFCURVE",
"225 -9 OFFCURVE",
"324 -9 CURVE SMOOTH"
);
}
);
width = 648;
},
{
layerId = "4F25946F-63AC-42D6-8D55-01CF6A99025B";
paths = (
{
closed = 1;
nodes = (
"436 -10 OFFCURVE",
"538 88 OFFCURVE",
"538 234 CURVE SMOOTH",
"538 700 LINE",
"326 700 LINE",
"326 234 LINE SMOOTH",
"326 200 OFFCURVE",
"308 178 OFFCURVE",
"282 178 CURVE SMOOTH",
"256 178 OFFCURVE",
"238 200 OFFCURVE",
"238 234 CURVE SMOOTH",
"238 700 LINE",
"26 700 LINE",
"26 234 LINE SMOOTH",
"26 88 OFFCURVE",
"128 -10 OFFCURVE",
"282 -10 CURVE SMOOTH"
);
}
);
width = 564;
}
);
unicode = 0055;
},
{
color = 1;
glyphname = V;
lastChange = "2016-10-17 08:10:55 +0000";
layers = (
{
layerId = "262880E7-CFE1-4BDA-902E-E24798F3240A";
paths = (
{
closed = 1;
nodes = (
"319 0 LINE",
"484 700 LINE",
"462 700 LINE",
"308 40 LINE",
"154 700 LINE",
"132 700 LINE",
"297 0 LINE"
);
}
);
width = 616;
},
{
layerId = "4F25946F-63AC-42D6-8D55-01CF6A99025B";
paths = (
{
closed = 1;
nodes = (
"382 0 LINE",
"552 700 LINE",
"337 700 LINE",
"276 300 LINE",
"215 700 LINE",
"0 700 LINE",
"170 0 LINE"
);
}
);
width = 552;
},
{
associatedMasterId = "262880E7-CFE1-4BDA-902E-E24798F3240A";
layerId = "4E067D8C-FFB4-48BF-AEBE-68DF3842147F";
name = "Medium {91,100}";
paths = (
{
closed = 1;
nodes = (
"327 0 LINE",
"493 700 LINE",
"398 700 LINE",
"279 147 LINE",
"161 700 LINE",
"65 700 LINE",
"232 0 LINE"
);
}
);
width = 558;
}
);
unicode = 0056;
},
{
color = 1;
glyphname = W;
lastChange = "2016-10-17 08:10:56 +0000";
layers = (
{
layerId = "262880E7-CFE1-4BDA-902E-E24798F3240A";
paths = (
{
closed = 1;
nodes = (
"280 0 LINE",
"394 648 LINE",
"508 0 LINE",
"530 0 LINE",
"655 700 LINE",
"633 700 LINE",
"519 52 LINE",
"405 700 LINE",
"383 700 LINE",
"269 52 LINE",
"155 700 LINE",
"133 700 LINE",
"258 0 LINE"
);
}
);
width = 788;
},
{
layerId = "4F25946F-63AC-42D6-8D55-01CF6A99025B";
paths = (
{
closed = 1;
nodes = (
"372 1 LINE",
"408 307 LINE",
"444 1 LINE",
"662 1 LINE",
"816 700 LINE",
"600 700 LINE",
"555 363 LINE",
"513 699 LINE",
"303 699 LINE",
"261 363 LINE",
"216 700 LINE",
"0 700 LINE",
"154 1 LINE"
);
}
);
width = 816;
},
{
associatedMasterId = "4F25946F-63AC-42D6-8D55-01CF6A99025B";
layerId = "11607437-4DCD-4C94-9EDA-1AD54BE1AE48";
name = "Medium { 91, 100}";
paths = (
{
closed = 1;
nodes = (
"300 0 LINE",
"384 528 LINE",
"469 0 LINE",
"562 0 LINE",
"698 700 LINE",
"605 700 LINE",
"519 160 LINE",
"432 700 LINE",
"336 700 LINE",
"250 160 LINE",
"163 700 LINE",
"70 700 LINE",
"207 0 LINE"
);
}
);
width = 773;
}
);
unicode = 0057;
},
{
color = 1;
glyphname = X;
lastChange = "2016-10-17 08:10:56 +0000";
layers = (
{
layerId = "262880E7-CFE1-4BDA-902E-E24798F3240A";
paths = (
{
closed = 1;
nodes = (
"441 700 LINE",
"298 376 LINE",
"155 700 LINE",
"132 700 LINE",
"287 350 LINE",
"132 0 LINE",
"155 0 LINE",
"298 324 LINE",
"441 0 LINE",
"464 0 LINE",
"310 350 LINE",
"464 700 LINE"
);
}
);
width = 596;
},
{
layerId = "4F25946F-63AC-42D6-8D55-01CF6A99025B";
paths = (
{
closed = 1;
nodes = (
"372 700 LINE",
"305 559 LINE",
"238 700 LINE",
"0 700 LINE",
"188 350 LINE",
"0 0 LINE",
"238 0 LINE",
"305 141 LINE",
"372 0 LINE",
"610 0 LINE",
"422 350 LINE",
"610 700 LINE"
);
}
);
width = 610;
},
{
associatedMasterId = "4F25946F-63AC-42D6-8D55-01CF6A99025B";
layerId = "A81EC77E-A514-41C1-A690-EF61EA7402F1";
name = "Bold Oct 15 16, 02:50";
paths = (
{
closed = 1;
nodes = (
"4 700 LINE",
"242 700 LINE",
"582 0 LINE",
"344 0 LINE"
);
},
{
closed = 1;
nodes = (
"344 700 LINE",
"582 700 LINE",
"242 0 LINE",
"4 0 LINE"
);
}
);
width = 586;
},
{
associatedMasterId = "262880E7-CFE1-4BDA-902E-E24798F3240A";
layerId = "F2B2385B-1C24-46F1-AB29-8D87B4EEE0C2";
name = "DEMIBOLD{119,100}";
paths = (
{
closed = 1;
nodes = (
"366 700 LINE",
"269 471 LINE",
"173 700 LINE",
"41 700 LINE",
"204 350 LINE",
"41 0 LINE",
"173 0 LINE",
"269 229 LINE",
"366 0 LINE",
"497 0 LINE",
"335 350 LINE",
"497 700 LINE"
);
}
);
width = 539;
},
{
associatedMasterId = "262880E7-CFE1-4BDA-902E-E24798F3240A";
layerId = "077702AC-624F-4016-8C7C-9CDBE6837B88";
name = "Light Oct 16 16, 21:49";
paths = (
{
closed = 1;
nodes = (
"441 700 LINE",
"298 376 LINE",
"155 700 LINE",
"132 700 LINE",
"287 350 LINE",
"132 0 LINE",
"155 0 LINE",
"298 324 LINE",
"441 0 LINE",
"464 0 LINE",
"310 350 LINE",
"464 700 LINE"
);
}
);
width = 596;
}
);
unicode = 0058;
},
{
color = 1;
glyphname = Y;
lastChange = "2016-10-17 08:10:56 +0000";
layers = (
{
layerId = "262880E7-CFE1-4BDA-902E-E24798F3240A";
paths = (
{
closed = 1;
nodes = (
"464 700 LINE",
"439 700 LINE",
"297 379 LINE",
"156 700 LINE",
"130 700 LINE",
"297 328 LINE"
);
},
{
closed = 1;
nodes = (
"308 0 LINE",
"308 350 LINE",
"286 350 LINE",
"286 0 LINE"
);
}
);
width = 594;
},
{
layerId = "4F25946F-63AC-42D6-8D55-01CF6A99025B";
paths = (
{
closed = 1;
nodes = (
"637 700 LINE",
"411 700 LINE",
"324 479 LINE",
"236 700 LINE",
"0 700 LINE",
"323 12 LINE"
);
},
{
closed = 1;
nodes = (
"431 0 LINE",
"431 350 LINE",
"215 350 LINE",
"215 0 LINE"
);
}
);
width = 637;
}
);
unicode = 0059;
},
{
color = 1;
glyphname = Z;
lastChange = "2016-10-17 08:10:56 +0000";
layers = (
{
layerId = "262880E7-CFE1-4BDA-902E-E24798F3240A";
paths = (
{
closed = 1;
nodes = (
"447 0 LINE",
"447 22 LINE",
"163 22 LINE",
"463 700 LINE",
"147 700 LINE",
"147 679 LINE",
"431 679 LINE",
"131 0 LINE"
);
}
);
width = 594;
},
{
layerId = "4F25946F-63AC-42D6-8D55-01CF6A99025B";
paths = (
{
closed = 1;
nodes = (
"468 0 LINE",
"468 198 LINE",
"278 198 LINE",
"468 700 LINE",
"3 700 LINE",
"3 502 LINE",
"198 502 LINE",
"0 0 LINE"
);
}
);
width = 468;
}
);
unicode = 005A;
},
{
color = 1;
glyphname = a;
lastChange = "2016-10-17 08:10:56 +0000";
layers = (
{
layerId = "262880E7-CFE1-4BDA-902E-E24798F3240A";
paths = (
{
closed = 1;
nodes = (
"378 -7 OFFCURVE",
"437 56 OFFCURVE",
"437 156 CURVE SMOOTH",
"437 344 LINE SMOOTH",
"437 444 OFFCURVE",
"378 507 OFFCURVE",
"282 507 CURVE SMOOTH",
"185 507 OFFCURVE",
"122 446 OFFCURVE",
"122 346 CURVE SMOOTH",
"122 154 LINE SMOOTH",
"122 54 OFFCURVE",
"185 -7 OFFCURVE",
"282 -7 CURVE SMOOTH"
);
},
{
closed = 1;
nodes = (
"196 15 OFFCURVE",
"144 68 OFFCURVE",
"144 154 CURVE SMOOTH",
"144 346 LINE SMOOTH",
"144 432 OFFCURVE",
"198 486 OFFCURVE",
"283 486 CURVE SMOOTH",
"368 486 OFFCURVE",
"422 432 OFFCURVE",
"422 346 CURVE SMOOTH",
"422 154 LINE SMOOTH",
"422 68 OFFCURVE",
"370 15 OFFCURVE",
"283 15 CURVE SMOOTH"
);
},
{
closed = 1;
nodes = (
"444 0 LINE",
"444 500 LINE",
"422 500 LINE",
"422 0 LINE"
);
}
);
width = 578;
},
{
layerId = "4F25946F-63AC-42D6-8D55-01CF6A99025B";
paths = (
{
closed = 1;
nodes = (
"317 -5 OFFCURVE",
"397 88 OFFCURVE",
"397 240 CURVE SMOOTH",
"397 254 LINE SMOOTH",
"397 411 OFFCURVE",
"317 504 OFFCURVE",
"187 504 CURVE",
"82 504 OFFCURVE",
"18 415 OFFCURVE",
"18 318 CURVE SMOOTH",
"18 160 LINE SMOOTH",
"18 59 OFFCURVE",
"82 -3 OFFCURVE",
"187 -4 CURVE SMOOTH"
);
},
{
closed = 1;
nodes = (
"243 165 OFFCURVE",
"226 181 OFFCURVE",
"226 206 CURVE SMOOTH",
"226 298 LINE SMOOTH",
"226 323 OFFCURVE",
"243 339 OFFCURVE",
"269 339 CURVE SMOOTH",
"295 339 OFFCURVE",
"313 323 OFFCURVE",
"313 298 CURVE SMOOTH",
"313 206 LINE SMOOTH",
"313 181 OFFCURVE",
"295 165 OFFCURVE",
"269 165 CURVE SMOOTH"
);
},
{
closed = 1;
nodes = (
"520 0 LINE",
"520 500 LINE",
"313 500 LINE",
"313 0 LINE"
);
}
);
width = 542;
},
{
associatedMasterId = "4F25946F-63AC-42D6-8D55-01CF6A99025B";
layerId = "47FC566B-2B97-4943-A9EB-638501BAD42D";
name = "DemiBold{119,100}";
paths = (
{
closed = 1;
nodes = (
"348 -6 OFFCURVE",
"419 83 OFFCURVE",
"419 171 CURVE SMOOTH",
"419 336 LINE SMOOTH",
"419 416 OFFCURVE",
"348 505 OFFCURVE",
"234 505 CURVE SMOOTH",
"133 505 OFFCURVE",
"69 447 OFFCURVE",
"69 348 CURVE SMOOTH",
"69 157 LINE SMOOTH",
"69 57 OFFCURVE",
"133 -5 OFFCURVE",
"234 -5 CURVE SMOOTH"
);
},
{
closed = 1;
nodes = (
"224 95 OFFCURVE",
"191 129 OFFCURVE",
"191 182 CURVE SMOOTH",
"191 320 LINE SMOOTH",
"191 374 OFFCURVE",
"225 407 OFFCURVE",
"278 407 CURVE SMOOTH",
"332 407 OFFCURVE",
"367 374 OFFCURVE",
"367 320 CURVE SMOOTH",
"367 182 LINE SMOOTH",
"367 129 OFFCURVE",
"333 95 OFFCURVE",
"278 95 CURVE SMOOTH"
);
},
{
closed = 1;
nodes = (
"488 0 LINE",
"488 500 LINE",
"367 500 LINE",
"367 0 LINE"
);
}
);
width = 572;
visible = 1;
}
);
unicode = 0061;
},
{
color = 1;
glyphname = b;
lastChange = "2016-10-17 08:10:56 +0000";
layers = (
{
layerId = "262880E7-CFE1-4BDA-902E-E24798F3240A";
paths = (
{
closed = 1;
nodes = (
"156 0 LINE",
"156 700 LINE",
"134 700 LINE",
"134 0 LINE"
);
},
{
closed = 1;
nodes = (
"396 -7 OFFCURVE",
"456 54 OFFCURVE",
"456 154 CURVE SMOOTH",
"456 346 LINE SMOOTH",
"456 446 OFFCURVE",
"396 507 OFFCURVE",
"298 507 CURVE SMOOTH",
"200 507 OFFCURVE",
"136 444 OFFCURVE",
"136 344 CURVE SMOOTH",
"136 156 LINE SMOOTH",
"136 56 OFFCURVE",
"200 -7 OFFCURVE",
"298 -7 CURVE SMOOTH"
);
},
{
closed = 1;
nodes = (
"209 15 OFFCURVE",
"156 68 OFFCURVE",
"156 154 CURVE SMOOTH",
"156 346 LINE SMOOTH",
"156 433 OFFCURVE",
"209 486 OFFCURVE",
"295 486 CURVE SMOOTH",
"381 486 OFFCURVE",
"434 433 OFFCURVE",
"434 346 CURVE SMOOTH",
"434 154 LINE SMOOTH",
"434 68 OFFCURVE",
"381 15 OFFCURVE",
"295 15 CURVE SMOOTH"
);
}
);
width = 578;
},
{
layerId = "4F25946F-63AC-42D6-8D55-01CF6A99025B";
paths = (
{
closed = 1;
nodes = (
"229 0 LINE",
"229 700 LINE",
"22 700 LINE",
"22 0 LINE"
);
},
{
closed = 1;
nodes = (
"460 -3 OFFCURVE",
"524 59 OFFCURVE",
"524 160 CURVE SMOOTH",
"524 318 LINE SMOOTH",
"524 415 OFFCURVE",
"460 504 OFFCURVE",
"355 504 CURVE",
"225 504 OFFCURVE",
"145 411 OFFCURVE",
"145 254 CURVE SMOOTH",
"145 240 LINE SMOOTH",
"145 88 OFFCURVE",
"225 -5 OFFCURVE",
"355 -4 CURVE SMOOTH"
);
},
{
closed = 1;
nodes = (
"247 165 OFFCURVE",
"229 181 OFFCURVE",
"229 206 CURVE SMOOTH",
"229 298 LINE SMOOTH",
"229 323 OFFCURVE",
"247 339 OFFCURVE",
"273 339 CURVE SMOOTH",
"299 339 OFFCURVE",
"316 323 OFFCURVE",
"316 298 CURVE SMOOTH",
"316 206 LINE SMOOTH",
"316 181 OFFCURVE",
"299 165 OFFCURVE",
"273 165 CURVE SMOOTH"
);
}
);
width = 542;
},
{
associatedMasterId = "4F25946F-63AC-42D6-8D55-01CF6A99025B";
layerId = "93BAF2E2-22D9-4221-A5AC-BC4294365A74";
name = "DemiBold {119,100}";
paths = (
{
closed = 1;
nodes = (
"197 -1 LINE",
"197 700 LINE",
"77 700 LINE",
"77 -1 LINE"
);
},
{
closed = 1;
nodes = (
"426 -6 OFFCURVE",
"494 57 OFFCURVE",
"494 157 CURVE SMOOTH",
"494 348 LINE SMOOTH",
"494 447 OFFCURVE",
"427 507 OFFCURVE",
"320 507 CURVE SMOOTH",
"189 507 OFFCURVE",
"129 416 OFFCURVE",
"129 301 CURVE SMOOTH",
"129 196 LINE SMOOTH",
"129 72 OFFCURVE",
"199 -6 OFFCURVE",
"319 -6 CURVE SMOOTH"
);
},
{
closed = 1;
nodes = (
"230 95 OFFCURVE",
"197 128 OFFCURVE",
"197 182 CURVE SMOOTH",
"197 320 LINE SMOOTH",
"197 374 OFFCURVE",
"230 407 OFFCURVE",
"285 407 CURVE SMOOTH",
"340 407 OFFCURVE",
"373 374 OFFCURVE",
"373 320 CURVE SMOOTH",
"373 182 LINE SMOOTH",
"373 128 OFFCURVE",
"340 95 OFFCURVE",
"285 95 CURVE SMOOTH"
);
}
);
width = 571;
visible = 1;
}
);
unicode = 0062;
},
{
color = 1;
glyphname = c;
lastChange = "2016-10-17 08:10:56 +0000";
layers = (
{
layerId = "262880E7-CFE1-4BDA-902E-E24798F3240A";
paths = (
{
closed = 1;
nodes = (
"382 -5 OFFCURVE",
"444 54 OFFCURVE",
"444 154 CURVE SMOOTH",
"444 157 LINE",
"422 157 LINE",
"422 154 LINE SMOOTH",
"422 68 OFFCURVE",
"370 15 OFFCURVE",
"283 15 CURVE SMOOTH",
"196 15 OFFCURVE",
"144 68 OFFCURVE",
"144 154 CURVE SMOOTH",
"144 346 LINE SMOOTH",
"144 433 OFFCURVE",
"198 486 OFFCURVE",
"283 486 CURVE SMOOTH",
"368 486 OFFCURVE",
"422 433 OFFCURVE",
"422 346 CURVE SMOOTH",
"422 344 LINE",
"444 344 LINE",
"444 346 LINE SMOOTH",
"444 446 OFFCURVE",
"382 505 OFFCURVE",
"283 505 CURVE SMOOTH",
"184 505 OFFCURVE",
"122 446 OFFCURVE",
"122 346 CURVE SMOOTH",
"122 154 LINE SMOOTH",
"122 54 OFFCURVE",
"184 -5 OFFCURVE",
"283 -5 CURVE SMOOTH"
);
}
);
width = 553;
},
{
layerId = "4F25946F-63AC-42D6-8D55-01CF6A99025B";
paths = (
{
closed = 1;
nodes = (
"421 -3 OFFCURVE",
"516 81 OFFCURVE",
"526 232 CURVE",
"526 234 LINE",
"315 234 LINE",
"315 207 LINE SMOOTH",
"315 182 OFFCURVE",
"297 166 OFFCURVE",
"271 166 CURVE SMOOTH",
"245 166 OFFCURVE",
"228 182 OFFCURVE",
"228 207 CURVE",
"228 297 LINE",
"228 322 OFFCURVE",
"245 338 OFFCURVE",
"271 338 CURVE SMOOTH",
"297 338 OFFCURVE",
"315 322 OFFCURVE",
"315 297 CURVE",
"315 276 LINE",
"526 276 LINE",
"526 278 LINE",
"524 422 OFFCURVE",
"429 503 OFFCURVE",
"270 503 CURVE SMOOTH",
"110 503 OFFCURVE",
"16 414 OFFCURVE",
"16 255 CURVE SMOOTH",
"16 248 LINE SMOOTH",
"16 87 OFFCURVE",
"110 -3 OFFCURVE",
"269 -3 CURVE SMOOTH"
);
}
);
width = 542;
},
{
associatedMasterId = "4F25946F-63AC-42D6-8D55-01CF6A99025B";
layerId = "7B6958F8-F0D4-40F0-82E9-17D44A566858";
name = "DemiBold{119,100}";
paths = (
{
closed = 1;
nodes = (
"407 -9 OFFCURVE",
"479 60 OFFCURVE",
"484 195 CURVE SMOOTH",
"484 198 LINE",
"361 198 LINE",
"361 198 LINE SMOOTH",
"361 146 OFFCURVE",
"326 105 OFFCURVE",
"273 105 CURVE SMOOTH",
"220 105 OFFCURVE",
"185 146 OFFCURVE",
"185 198 CURVE SMOOTH",
"185 310 LINE SMOOTH",
"185 362 OFFCURVE",
"220 400 OFFCURVE",
"273 400 CURVE SMOOTH",
"326 400 OFFCURVE",
"361 362 OFFCURVE",
"361 310 CURVE SMOOTH",
"361 308 LINE",
"484 308 LINE",
"484 310 LINE SMOOTH",
"483 441 OFFCURVE",
"411 509 OFFCURVE",
"272 509 CURVE SMOOTH",
"133 509 OFFCURVE",
"62 437 OFFCURVE",
"62 298 CURVE SMOOTH",
"62 204 LINE SMOOTH",
"62 63 OFFCURVE",
"133 -9 OFFCURVE",
"272 -9 CURVE SMOOTH"
);
}
);
width = 559;
}
);
unicode = 0063;
},
{
color = 1;
glyphname = e;
lastChange = "2016-10-17 08:10:55 +0000";
layers = (
{
layerId = "262880E7-CFE1-4BDA-902E-E24798F3240A";
paths = (
{
closed = 1;
nodes = (
"382 -5 OFFCURVE",
"444 54 OFFCURVE",
"444 154 CURVE SMOOTH",
"444 158 LINE",
"422 158 LINE",
"422 154 LINE SMOOTH",
"422 68 OFFCURVE",
"370 15 OFFCURVE",
"283 15 CURVE SMOOTH",
"196 15 OFFCURVE",
"144 68 OFFCURVE",
"144 154 CURVE SMOOTH",
"144 346 LINE SMOOTH",
"144 433 OFFCURVE",
"198 486 OFFCURVE",
"283 486 CURVE SMOOTH",
"368 486 OFFCURVE",
"422 433 OFFCURVE",
"422 346 CURVE SMOOTH",
"422 261 LINE",
"139 261 LINE",
"139 240 LINE",
"444 240 LINE",
"444 346 LINE SMOOTH",
"444 446 OFFCURVE",
"382 505 OFFCURVE",
"283 505 CURVE SMOOTH",
"184 505 OFFCURVE",
"122 446 OFFCURVE",
"122 346 CURVE SMOOTH",
"122 154 LINE SMOOTH",
"122 54 OFFCURVE",
"184 -5 OFFCURVE",
"283 -5 CURVE SMOOTH"
);
}
);
width = 561;
},
{
layerId = "4F25946F-63AC-42D6-8D55-01CF6A99025B";
paths = (
{
closed = 1;
nodes = (
"422 -4 OFFCURVE",
"517 66 OFFCURVE",
"526 193 CURVE",
"526 193 LINE",
"326 193 LINE",
"326 193 LINE",
"322 164 OFFCURVE",
"298 152 OFFCURVE",
"272 152 CURVE SMOOTH",
"246 152 OFFCURVE",
"229 168 OFFCURVE",
"229 193 CURVE SMOOTH",
"229 318 LINE SMOOTH",
"229 344 OFFCURVE",
"246 359 OFFCURVE",
"272 359 CURVE SMOOTH",
"298 359 OFFCURVE",
"315 344 OFFCURVE",
"315 318 CURVE SMOOTH",
"315 299 LINE",
"212 299 LINE",
"212 231 LINE",
"526 231 LINE",
"526 262 LINE",
"524 417 OFFCURVE",
"430 504 OFFCURVE",
"271 504 CURVE SMOOTH",
"111 504 OFFCURVE",
"17 415 OFFCURVE",
"17 256 CURVE SMOOTH",
"17 247 LINE SMOOTH",
"17 86 OFFCURVE",
"111 -4 OFFCURVE",
"270 -4 CURVE SMOOTH"
);
}
);
width = 543;
},
{
associatedMasterId = "4F25946F-63AC-42D6-8D55-01CF6A99025B";
layerId = "A8631AE8-6F64-4109-B373-5711B024CF55";
name = "DemiBold {119,100}";
paths = (
{
closed = 1;
nodes = (
"400 -7 OFFCURVE",
"484 56 OFFCURVE",
"484 160 CURVE SMOOTH",
"484 161 LINE",
"361 162 LINE",
"361 158 LINE SMOOTH",
"361 123 OFFCURVE",
"324 101 OFFCURVE",
"273 101 CURVE SMOOTH",
"219 101 OFFCURVE",
"186 134 OFFCURVE",
"186 188 CURVE SMOOTH",
"186 319 LINE SMOOTH",
"186 373 OFFCURVE",
"219 406 OFFCURVE",
"273 406 CURVE SMOOTH",
"328 406 OFFCURVE",
"361 373 OFFCURVE",
"361 319 CURVE SMOOTH",
"361 290 LINE",
"174 290 LINE",
"174 211 LINE",
"484 211 LINE",
"484 301 LINE SMOOTH",
"484 429 OFFCURVE",
"404 507 OFFCURVE",
"273 507 CURVE SMOOTH",
"142 507 OFFCURVE",
"62 428 OFFCURVE",
"62 298 CURVE SMOOTH",
"62 204 LINE SMOOTH",
"62 73 OFFCURVE",
"142 -7 OFFCURVE",
"272 -7 CURVE SMOOTH"
);
}
);
width = 543;
visible = 1;
}
);
unicode = 0065;
},
{
color = 1;
glyphname = f;
lastChange = "2016-10-17 08:10:56 +0000";
layers = (
{
layerId = "262880E7-CFE1-4BDA-902E-E24798F3240A";
paths = (
{
closed = 1;
nodes = (
"188 -1 LINE",
"188 550 LINE SMOOTH",
"188 637 OFFCURVE",
"241 690 OFFCURVE",
"327 690 CURVE",
"327 711 LINE",
"227 711 OFFCURVE",
"166 650 OFFCURVE",
"166 550 CURVE SMOOTH",
"166 -1 LINE"
);
},
{
closed = 1;
nodes = (
"297 479 LINE",
"297 500 LINE",
"97 500 LINE",
"97 479 LINE"
);
}
);
width = 394;
},
{
layerId = "4F25946F-63AC-42D6-8D55-01CF6A99025B";
paths = (
{
closed = 1;
nodes = (
"249 8 LINE",
"249 525 LINE",
"249 545 OFFCURVE",
"271 551 OFFCURVE",
"293 551 CURVE",
"293 693 LINE",
"153 700 OFFCURVE",
"64 690 OFFCURVE",
"64 549 CURVE",
"64 8 LINE"
);
},
{
closed = 1;
nodes = (
"311 326 LINE",
"311 500 LINE",
"18 500 LINE",
"18 326 LINE"
);
}
);
width = 329;
},
{
associatedMasterId = "4F25946F-63AC-42D6-8D55-01CF6A99025B";
layerId = "AF0A8C32-09C6-404E-AFE0-A8C575E5B58A";
name = "Medium{91,100}";
paths = (
{
closed = 1;
nodes = (
"194 2 LINE",
"194 550 LINE SMOOTH",
"194 616 OFFCURVE",
"240 630 OFFCURVE",
"295 630 CURVE",
"296 700 LINE",
"181 703 OFFCURVE",
"110 665 OFFCURVE",
"110 550 CURVE SMOOTH",
"110 2 LINE"
);
},
{
closed = 1;
nodes = (
"285 421 LINE",
"285 500 LINE",
"49 500 LINE",
"49 421 LINE"
);
}
);
width = 320;
}
);
unicode = 0066;
},
{
color = 1;
glyphname = g;
lastChange = "2016-10-17 08:10:55 +0000";
layers = (
{
layerId = "262880E7-CFE1-4BDA-902E-E24798F3240A";
paths = (
{
closed = 1;
nodes = (
"378 -5 OFFCURVE",
"437 56 OFFCURVE",
"437 156 CURVE SMOOTH",
"437 344 LINE SMOOTH",
"437 444 OFFCURVE",
"378 505 OFFCURVE",
"280 505 CURVE SMOOTH",
"182 505 OFFCURVE",
"122 445 OFFCURVE",
"122 346 CURVE SMOOTH",
"122 154 LINE SMOOTH",
"122 55 OFFCURVE",
"182 -5 OFFCURVE",
"281 -5 CURVE"
);
},
{
closed = 1;
nodes = (
"197 17 OFFCURVE",
"144 70 OFFCURVE",
"144 156 CURVE SMOOTH",
"144 344 LINE SMOOTH",
"144 431 OFFCURVE",
"197 484 OFFCURVE",
"283 484 CURVE SMOOTH",
"369 484 OFFCURVE",
"422 431 OFFCURVE",
"422 344 CURVE SMOOTH",
"422 156 LINE SMOOTH",
"422 70 OFFCURVE",
"369 17 OFFCURVE",
"283 17 CURVE SMOOTH"
);
},
{
closed = 1;
nodes = (
"371 -206 OFFCURVE",
"444 -140 OFFCURVE",
"444 0 CURVE SMOOTH",
"444 500 LINE",
"422 500 LINE",
"422 0 LINE SMOOTH",
"422 -126 OFFCURVE",
"356 -185 OFFCURVE",
"237 -181 CURVE",
"237 -202 LINE"
);
}
);
width = 578;
},
{
layerId = "4F25946F-63AC-42D6-8D55-01CF6A99025B";
paths = (
{
closed = 1;
nodes = (
"318 -5 OFFCURVE",
"398 88 OFFCURVE",
"398 240 CURVE SMOOTH",
"398 254 LINE SMOOTH",
"398 411 OFFCURVE",
"318 504 OFFCURVE",
"188 504 CURVE",
"83 504 OFFCURVE",
"19 447 OFFCURVE",
"19 350 CURVE SMOOTH",
"19 160 LINE SMOOTH",
"19 59 OFFCURVE",
"83 -3 OFFCURVE",
"188 -4 CURVE SMOOTH"
);
},
{
closed = 1;
nodes = (
"238 165 OFFCURVE",
"221 181 OFFCURVE",
"221 206 CURVE SMOOTH",
"221 298 LINE SMOOTH",
"221 323 OFFCURVE",
"238 339 OFFCURVE",
"264 339 CURVE SMOOTH",
"290 339 OFFCURVE",
"308 323 OFFCURVE",
"308 298 CURVE SMOOTH",
"308 206 LINE SMOOTH",
"308 181 OFFCURVE",
"290 165 OFFCURVE",
"264 165 CURVE SMOOTH"
);
},
{
closed = 1;
nodes = (
"453 -226 OFFCURVE",
"520 -115 OFFCURVE",
"520 34 CURVE SMOOTH",
"520 500 LINE",
"308 500 LINE",
"308 34 LINE SMOOTH",
"308 -14 OFFCURVE",
"291 -44 OFFCURVE",
"147 -36 CURVE",
"147 -207 LINE"
);
}
);
width = 542;
},
{
associatedMasterId = "4F25946F-63AC-42D6-8D55-01CF6A99025B";
layerId = "B6BF2724-269E-425D-BD22-36C93A6CFDCE";
name = "Medium {91, 100}";
paths = (
{
closed = 1;
nodes = (
"372 -6 OFFCURVE",
"440 74 OFFCURVE",
"440 192 CURVE SMOOTH",
"440 292 LINE SMOOTH",
"440 375 OFFCURVE",
"402 504 OFFCURVE",
"260 504 CURVE SMOOTH",
"163 504 OFFCURVE",
"83 445 OFFCURVE",
"83 348 CURVE SMOOTH",
"83 156 LINE SMOOTH",
"83 55 OFFCURVE",
"158 -4 OFFCURVE",
"256 -5 CURVE"
);
},
{
closed = 1;
nodes = (
"213 72 OFFCURVE",
"174 111 OFFCURVE",
"174 174 CURVE SMOOTH",
"174 326 LINE SMOOTH",
"174 389 OFFCURVE",
"213 428 OFFCURVE",
"277 428 CURVE SMOOTH",
"340 428 OFFCURVE",
"380 389 OFFCURVE",
"380 326 CURVE SMOOTH",
"380 174 LINE SMOOTH",
"380 111 OFFCURVE",
"340 72 OFFCURVE",
"277 72 CURVE SMOOTH"
);
},
{
closed = 1;
nodes = (
"410 -217 OFFCURVE",
"474 -137 OFFCURVE",
"474 -18 CURVE SMOOTH",
"474 500 LINE",
"380 500 LINE",
"380 -18 LINE SMOOTH",
"380 -90 OFFCURVE",
"340 -135 OFFCURVE",
"220 -131 CURVE",
"220 -209 LINE"
);
}
);
width = 573;
}
);
unicode = 0067;
},
{
color = 1;
glyphname = h;
lastChange = "2016-10-17 08:10:55 +0000";
layers = (
{
layerId = "262880E7-CFE1-4BDA-902E-E24798F3240A";
paths = (
{
closed = 1;
nodes = (
"456 0 LINE",
"456 346 LINE SMOOTH",
"456 446 OFFCURVE",
"394 505 OFFCURVE",
"297 505 CURVE SMOOTH",
"199 505 OFFCURVE",
"140 444 OFFCURVE",
"140 344 CURVE",
"156 344 LINE",
"156 431 OFFCURVE",
"210 484 OFFCURVE",
"295 484 CURVE SMOOTH",
"380 484 OFFCURVE",
"434 431 OFFCURVE",
"434 344 CURVE SMOOTH",
"434 0 LINE"
);
},
{
closed = 1;
nodes = (
"156 0 LINE",
"156 700 LINE",
"134 700 LINE",
"134 0 LINE"
);
}
);
width = 584;
},
{
layerId = "4F25946F-63AC-42D6-8D55-01CF6A99025B";
paths = (
{
closed = 1;
nodes = (
"524 0 LINE",
"524 350 LINE SMOOTH",
"524 441 OFFCURVE",
"473 510 OFFCURVE",
"357 510 CURVE SMOOTH",
"208 510 OFFCURVE",
"165 396 OFFCURVE",
"165 294 CURVE",
"230 294 LINE",
"230 321 OFFCURVE",
"247 339 OFFCURVE",
"273 339 CURVE SMOOTH",
"299 339 OFFCURVE",
"317 321 OFFCURVE",
"317 294 CURVE SMOOTH",
"317 0 LINE"
);
},
{
closed = 1;
nodes = (
"230 0 LINE",
"230 700 LINE",
"22 700 LINE",
"22 0 LINE"
);
}
);
width = 545;
},
{
associatedMasterId = "4F25946F-63AC-42D6-8D55-01CF6A99025B";
layerId = "6DA8EE20-322F-490D-912C-EA80E03ECB77";
name = "Medium {91, 100}";
paths = (
{
closed = 1;
nodes = (
"490 0 LINE",
"490 348 LINE SMOOTH",
"490 444 OFFCURVE",
"430 507 OFFCURVE",
"322 507 CURVE SMOOTH",
"209 507 OFFCURVE",
"148 437 OFFCURVE",
"148 326 CURVE",
"192 326 LINE",
"192 390 OFFCURVE",
"232 430 OFFCURVE",
"294 430 CURVE SMOOTH",
"357 430 OFFCURVE",
"397 390 OFFCURVE",
"397 326 CURVE SMOOTH",
"397 0 LINE"
);
},
{
closed = 1;
nodes = (
"192 0 LINE",
"192 700 LINE",
"99 700 LINE",
"99 0 LINE"
);
}
);
width = 582;
}
);
unicode = 0068;
},
{
color = 1;
glyphname = i;
lastChange = "2016-10-17 08:10:56 +0000";
layers = (
{
layerId = "262880E7-CFE1-4BDA-902E-E24798F3240A";
paths = (
{
closed = 1;
nodes = (
"156 -1 LINE",
"156 500 LINE",
"134 500 LINE",
"134 -1 LINE"
);
},
{
closed = 1;
nodes = (
"162 669 OFFCURVE",
"176 683 OFFCURVE",
"176 700 CURVE SMOOTH",
"176 716 OFFCURVE",
"162 730 OFFCURVE",
"145 730 CURVE SMOOTH",
"128 730 OFFCURVE",
"114 716 OFFCURVE",
"114 700 CURVE SMOOTH",
"114 683 OFFCURVE",
"128 669 OFFCURVE",
"145 669 CURVE SMOOTH"
);
}
);
width = 290;
},
{
layerId = "4F25946F-63AC-42D6-8D55-01CF6A99025B";
paths = (
{
closed = 1;
nodes = (
"230 0 LINE",
"230 500 LINE",
"22 500 LINE",
"22 0 LINE"
);
},
{
closed = 1;
nodes = (
"187 547 OFFCURVE",
"240 591 OFFCURVE",
"240 656 CURVE",
"240 715 OFFCURVE",
"187 763 OFFCURVE",
"126 763 CURVE SMOOTH",
"65 763 OFFCURVE",
"12 715 OFFCURVE",
"12 656 CURVE SMOOTH",
"12 595 OFFCURVE",
"63 547 OFFCURVE",
"126 547 CURVE SMOOTH"
);
}
);
width = 252;
}
);
unicode = 0069;
},
{
color = 1;
glyphname = j;
lastChange = "2016-10-17 08:10:56 +0000";
layers = (
{
layerId = "262880E7-CFE1-4BDA-902E-E24798F3240A";
paths = (
{
closed = 1;
nodes = (
"104 -211 OFFCURVE",
"156 -159 OFFCURVE",
"156 -74 CURVE SMOOTH",
"156 500 LINE",
"134 500 LINE",
"134 -74 LINE SMOOTH",
"134 -146 OFFCURVE",
"91 -190 OFFCURVE",
"20 -190 CURVE",
"20 -211 LINE"
);
},
{
closed = 1;
nodes = (
"164 669 OFFCURVE",
"176 681 OFFCURVE",
"176 700 CURVE SMOOTH",
"176 719 OFFCURVE",
"164 730 OFFCURVE",
"145 730 CURVE SMOOTH",
"126 730 OFFCURVE",
"114 719 OFFCURVE",
"114 700 CURVE SMOOTH",
"114 681 OFFCURVE",
"126 669 OFFCURVE",
"145 669 CURVE SMOOTH"
);
}
);
width = 290;
},
{
layerId = "4F25946F-63AC-42D6-8D55-01CF6A99025B";
paths = (
{
closed = 1;
nodes = (
"118 -236 OFFCURVE",
"231 -200 OFFCURVE",
"230 -39 CURVE",
"230 500 LINE",
"22 500 LINE",
"22 -8 LINE",
"22 -40 OFFCURVE",
"-32 -39 OFFCURVE",
"-65 -26 CURVE",
"-75 -201 LINE"
);
},
{
closed = 1;
nodes = (
"188 547 OFFCURVE",
"240 595 OFFCURVE",
"240 656 CURVE",
"240 715 OFFCURVE",
"188 763 OFFCURVE",
"126 763 CURVE SMOOTH",
"65 763 OFFCURVE",
"12 715 OFFCURVE",
"12 656 CURVE SMOOTH",
"12 595 OFFCURVE",
"63 547 OFFCURVE",
"126 547 CURVE SMOOTH"
);
}
);
width = 252;
}
);
unicode = 006A;
},
{
color = 1;
glyphname = k;
lastChange = "2016-10-17 08:10:56 +0000";
layers = (
{
layerId = "262880E7-CFE1-4BDA-902E-E24798F3240A";
paths = (
{
closed = 1;
nodes = (
"413 0 LINE",
"167 250 LINE",
"415 500 LINE",
"384 500 LINE",
"135 250 LINE",
"382 0 LINE"
);
},
{
closed = 1;
nodes = (
"155 1 LINE",
"156 700 LINE",
"134 700 LINE",
"133 1 LINE"
);
}
);
width = 512;
},
{
layerId = "4F25946F-63AC-42D6-8D55-01CF6A99025B";
paths = (
{
closed = 1;
nodes = (
"532 0 LINE",
"350 250 LINE",
"542 500 LINE",
"310 500 LINE",
"166 256 LINE",
"296 0 LINE"
);
},
{
closed = 1;
nodes = (
"210 0 LINE",
"211 700 LINE",
"23 700 LINE",
"22 0 LINE"
);
}
);
width = 557;
},
{
associatedMasterId = "4F25946F-63AC-42D6-8D55-01CF6A99025B";
layerId = "67D1648E-BAA1-4D62-B90C-A94E0FCB7E5A";
name = "DemiBold{119,100}";
paths = (
{
closed = 1;
nodes = (
"500 0 LINE",
"298 250 LINE",
"515 500 LINE",
"365 500 LINE",
"157 250 LINE",
"349 0 LINE"
);
},
{
closed = 1;
nodes = (
"205 0 LINE",
"206 700 LINE",
"85 700 LINE",
"84 0 LINE"
);
}
);
width = 538;
}
);
unicode = 006B;
},
{
color = 1;
glyphname = l;
lastChange = "2016-10-17 08:10:56 +0000";
layers = (
{
layerId = "262880E7-CFE1-4BDA-902E-E24798F3240A";
paths = (
{
closed = 1;
nodes = (
"156 -1 LINE",
"156 700 LINE",
"134 700 LINE",
"134 -1 LINE"
);
}
);
width = 290;
},
{
layerId = "4F25946F-63AC-42D6-8D55-01CF6A99025B";
paths = (
{
closed = 1;
nodes = (
"230 0 LINE",
"230 700 LINE",
"22 700 LINE",
"22 0 LINE"
);
}
);
width = 252;
}
);
unicode = 006C;
},
{
color = 1;
glyphname = m;
lastChange = "2016-10-17 08:10:55 +0000";
layers = (
{
layerId = "262880E7-CFE1-4BDA-902E-E24798F3240A";
paths = (
{
closed = 1;
nodes = (
"156 0 LINE",
"156 500 LINE",
"134 500 LINE",
"134 0 LINE"
);
},
{
closed = 1;
nodes = (
"446 0 LINE",
"446 345 LINE",
"446 445 OFFCURVE",
"385 506 OFFCURVE",
"291 506 CURVE SMOOTH",
"196 506 OFFCURVE",
"141 445 OFFCURVE",
"141 345 CURVE",
"156 345 LINE",
"156 432 OFFCURVE",
"207 485 OFFCURVE",
"290 485 CURVE SMOOTH",
"373 485 OFFCURVE",
"424 432 OFFCURVE",
"424 345 CURVE",
"424 0 LINE"
);
},
{
closed = 1;
nodes = (
"736 0 LINE",
"736 345 LINE SMOOTH",
"736 445 OFFCURVE",
"675 506 OFFCURVE",
"581 506 CURVE SMOOTH",
"486 506 OFFCURVE",
"431 445 OFFCURVE",
"431 345 CURVE",
"446 345 LINE",
"446 432 OFFCURVE",
"497 485 OFFCURVE",
"580 485 CURVE SMOOTH",
"663 485 OFFCURVE",
"714 432 OFFCURVE",
"714 345 CURVE SMOOTH",
"714 0 LINE"
);
}
);
width = 864;
},
{
layerId = "4F25946F-63AC-42D6-8D55-01CF6A99025B";
paths = (
{
closed = 1;
nodes = (
"230 0 LINE",
"230 500 LINE",
"22 500 LINE",
"22 0 LINE"
);
},
{
closed = 1;
nodes = (
"524 0 LINE",
"524 350 LINE SMOOTH",
"524 441 OFFCURVE",
"479 502 OFFCURVE",
"362 502 CURVE",
"214 502 OFFCURVE",
"165 387 OFFCURVE",
"165 286 CURVE",
"230 294 LINE",
"230 321 OFFCURVE",
"247 339 OFFCURVE",
"273 339 CURVE SMOOTH",
"299 339 OFFCURVE",
"317 321 OFFCURVE",
"317 294 CURVE SMOOTH",
"317 0 LINE"
);
},
{
closed = 1;
nodes = (
"818 0 LINE",
"818 350 LINE SMOOTH",
"818 441 OFFCURVE",
"770 502 OFFCURVE",
"652 502 CURVE",
"508 502 OFFCURVE",
"459 387 OFFCURVE",
"459 286 CURVE",
"524 294 LINE",
"524 321 OFFCURVE",
"541 339 OFFCURVE",
"567 339 CURVE SMOOTH",
"593 339 OFFCURVE",
"611 321 OFFCURVE",
"611 294 CURVE SMOOTH",
"611 0 LINE"
);
}
);
width = 839;
},
{
associatedMasterId = "4F25946F-63AC-42D6-8D55-01CF6A99025B";
layerId = "F5ED04A7-6D5C-4CB3-8E75-4B337E8B4478";
name = "Medium {91, 100}";
paths = (
{
closed = 1;
nodes = (
"191 0 LINE",
"191 500 LINE",
"99 500 LINE",
"99 0 LINE"
);
},
{
closed = 1;
nodes = (
"475 0 LINE",
"475 350 LINE SMOOTH",
"475 447 OFFCURVE",
"423 510 OFFCURVE",
"322 510 CURVE SMOOTH",
"210 510 OFFCURVE",
"153 440 OFFCURVE",
"153 336 CURVE",
"191 336 LINE",
"191 396 OFFCURVE",
"228 433 OFFCURVE",
"287 433 CURVE SMOOTH",
"346 433 OFFCURVE",
"383 396 OFFCURVE",
"383 336 CURVE SMOOTH",
"383 0 LINE"
);
},
{
closed = 1;
nodes = (
"759 0 LINE",
"759 350 LINE SMOOTH",
"759 447 OFFCURVE",
"707 510 OFFCURVE",
"606 510 CURVE SMOOTH",
"494 510 OFFCURVE",
"437 440 OFFCURVE",
"437 336 CURVE",
"475 336 LINE",
"475 396 OFFCURVE",
"512 433 OFFCURVE",
"571 433 CURVE SMOOTH",
"630 433 OFFCURVE",
"667 396 OFFCURVE",
"667 336 CURVE SMOOTH",
"667 0 LINE"
);
}
);
width = 850;
}
);
unicode = 006D;
},
{
color = 1;
glyphname = n;
lastChange = "2016-10-17 08:10:56 +0000";
layers = (
{
layerId = "262880E7-CFE1-4BDA-902E-E24798F3240A";
paths = (
{
closed = 1;
nodes = (
"456 0 LINE",
"456 344 LINE SMOOTH",
"456 444 OFFCURVE",
"395 504 OFFCURVE",
"296 504 CURVE SMOOTH",
"200 504 OFFCURVE",
"141 443 OFFCURVE",
"141 343 CURVE",
"156 343 LINE",
"156 430 OFFCURVE",
"209 483 OFFCURVE",
"295 483 CURVE SMOOTH",
"381 483 OFFCURVE",
"434 430 OFFCURVE",
"434 343 CURVE SMOOTH",
"434 0 LINE"
);
},
{
closed = 1;
nodes = (
"156 0 LINE",
"156 496 LINE",
"134 496 LINE",
"134 0 LINE"
);
}
);
width = 584;
},
{
layerId = "4F25946F-63AC-42D6-8D55-01CF6A99025B";
paths = (
{
closed = 1;
nodes = (
"524 0 LINE",
"524 350 LINE SMOOTH",
"524 441 OFFCURVE",
"479 502 OFFCURVE",
"362 502 CURVE",
"214 502 OFFCURVE",
"165 387 OFFCURVE",
"165 286 CURVE",
"230 294 LINE",
"230 321 OFFCURVE",
"247 339 OFFCURVE",
"273 339 CURVE SMOOTH",
"299 339 OFFCURVE",
"317 321 OFFCURVE",
"317 294 CURVE SMOOTH",
"317 0 LINE"
);
},
{
closed = 1;
nodes = (
"230 0 LINE",
"230 500 LINE",
"22 500 LINE",
"22 0 LINE"
);
}
);
width = 545;
},
{
associatedMasterId = "4F25946F-63AC-42D6-8D55-01CF6A99025B";
layerId = "48EED9EC-BBC9-457D-A249-2E4341C899C3";
name = "Medium {91, 100}";
paths = (
{
closed = 1;
nodes = (
"490 0 LINE",
"490 346 LINE SMOOTH",
"490 443 OFFCURVE",
"429 506 OFFCURVE",
"325 506 CURVE SMOOTH",
"207 506 OFFCURVE",
"139 425 OFFCURVE",
"139 325 CURVE",
"192 325 LINE",
"192 389 OFFCURVE",
"231 429 OFFCURVE",
"294 429 CURVE SMOOTH",
"358 429 OFFCURVE",
"397 389 OFFCURVE",
"397 325 CURVE SMOOTH",
"397 0 LINE"
);
},
{
closed = 1;
nodes = (
"192 0 LINE",
"192 498 LINE",
"99 498 LINE",
"99 0 LINE"
);
}
);
width = 582;
}
);
unicode = 006E;
},
{
color = 1;
glyphname = o;
lastChange = "2016-10-17 08:10:56 +0000";
layers = (
{
layerId = "262880E7-CFE1-4BDA-902E-E24798F3240A";
paths = (
{
closed = 1;
nodes = (
"383 -5 OFFCURVE",
"444 56 OFFCURVE",
"444 156 CURVE SMOOTH",
"444 344 LINE SMOOTH",
"444 444 OFFCURVE",
"383 505 OFFCURVE",
"283 505 CURVE SMOOTH",
"183 505 OFFCURVE",
"122 444 OFFCURVE",
"122 344 CURVE SMOOTH",
"122 156 LINE SMOOTH",
"122 56 OFFCURVE",
"183 -5 OFFCURVE",
"283 -5 CURVE SMOOTH"
);
},
{
closed = 1;
nodes = (
"197 17 OFFCURVE",
"144 70 OFFCURVE",
"144 156 CURVE SMOOTH",
"144 344 LINE SMOOTH",
"144 431 OFFCURVE",
"197 484 OFFCURVE",
"283 484 CURVE SMOOTH",
"369 484 OFFCURVE",
"422 431 OFFCURVE",
"422 344 CURVE SMOOTH",
"422 156 LINE SMOOTH",
"422 70 OFFCURVE",
"369 17 OFFCURVE",
"283 17 CURVE SMOOTH"
);
}
);
width = 566;
},
{
layerId = "4F25946F-63AC-42D6-8D55-01CF6A99025B";
paths = (
{
closed = 1;
nodes = (
"432 -4 OFFCURVE",
"527 86 OFFCURVE",
"527 247 CURVE",
"527 256 LINE",
"525 415 OFFCURVE",
"430 504 OFFCURVE",
"271 504 CURVE",
"111 504 OFFCURVE",
"17 415 OFFCURVE",
"17 256 CURVE",
"17 247 LINE",
"18 86 OFFCURVE",
"112 -4 OFFCURVE",
"271 -4 CURVE SMOOTH"
);
},
{
closed = 1;
nodes = (
"245 163 OFFCURVE",
"228 179 OFFCURVE",
"228 204 CURVE SMOOTH",
"228 296 LINE SMOOTH",
"228 321 OFFCURVE",
"245 337 OFFCURVE",
"271 337 CURVE SMOOTH",
"297 337 OFFCURVE",
"315 321 OFFCURVE",
"315 296 CURVE SMOOTH",
"315 204 LINE SMOOTH",
"315 179 OFFCURVE",
"297 163 OFFCURVE",
"271 163 CURVE SMOOTH"
);
}
);
width = 543;
},
{
associatedMasterId = "4F25946F-63AC-42D6-8D55-01CF6A99025B";
layerId = "2DFAB8E9-CF9C-42C7-AA48-DE050B873B35";
name = "Demibold{119,100}";
paths = (
{
closed = 1;
nodes = (
"395 -7 OFFCURVE",
"474 70 OFFCURVE",
"474 195 CURVE SMOOTH",
"474 307 LINE SMOOTH",
"474 431 OFFCURVE",
"395 507 OFFCURVE",
"267 507 CURVE SMOOTH",
"139 507 OFFCURVE",
"61 431 OFFCURVE",
"61 307 CURVE SMOOTH",
"61 195 LINE SMOOTH",
"61 70 OFFCURVE",
"139 -7 OFFCURVE",
"267 -7 CURVE SMOOTH"
);
},
{
closed = 1;
nodes = (
"214 110 OFFCURVE",
"179 145 OFFCURVE",
"179 197 CURVE SMOOTH",
"179 305 LINE SMOOTH",
"179 357 OFFCURVE",
"214 392 OFFCURVE",
"267 392 CURVE SMOOTH",
"320 392 OFFCURVE",
"355 357 OFFCURVE",
"355 305 CURVE SMOOTH",
"355 197 LINE SMOOTH",
"355 145 OFFCURVE",
"320 110 OFFCURVE",
"267 110 CURVE SMOOTH"
);
}
);
width = 535;
}
);
unicode = 006F;
},
{
color = 1;
glyphname = p;
lastChange = "2016-10-17 08:10:56 +0000";
layers = (
{
layerId = "262880E7-CFE1-4BDA-902E-E24798F3240A";
paths = (
{
closed = 1;
nodes = (
"396 -7 OFFCURVE",
"456 54 OFFCURVE",
"456 154 CURVE SMOOTH",
"456 346 LINE SMOOTH",
"456 446 OFFCURVE",
"396 507 OFFCURVE",
"298 507 CURVE SMOOTH",
"200 507 OFFCURVE",
"136 444 OFFCURVE",
"136 344 CURVE SMOOTH",
"136 156 LINE SMOOTH",
"136 56 OFFCURVE",
"200 -7 OFFCURVE",
"298 -7 CURVE SMOOTH"
);
},
{
closed = 1;
nodes = (
"156 -200 LINE",
"156 500 LINE",
"134 500 LINE",
"134 -200 LINE"
);
},
{
closed = 1;
nodes = (
"209 14 OFFCURVE",
"156 67 OFFCURVE",
"156 154 CURVE SMOOTH",
"156 346 LINE SMOOTH",
"156 432 OFFCURVE",
"209 485 OFFCURVE",
"295 485 CURVE SMOOTH",
"381 485 OFFCURVE",
"434 432 OFFCURVE",
"434 346 CURVE SMOOTH",
"434 154 LINE SMOOTH",
"434 67 OFFCURVE",
"381 14 OFFCURVE",
"295 14 CURVE SMOOTH"
);
}
);
width = 578;
},
{
layerId = "4F25946F-63AC-42D6-8D55-01CF6A99025B";
paths = (
{
closed = 1;
nodes = (
"460 -4 OFFCURVE",
"524 52 OFFCURVE",
"524 157 CURVE SMOOTH",
"524 347 LINE SMOOTH",
"524 441 OFFCURVE",
"449 504 OFFCURVE",
"336 504 CURVE",
"141 504 OFFCURVE",
"125 242 OFFCURVE",
"125 231 CURVE SMOOTH",
"125 217 LINE SMOOTH",
"125 117 OFFCURVE",
"216 -12 OFFCURVE",
"364 -7 CURVE SMOOTH"
);
},
{
closed = 1;
nodes = (
"230 -200 LINE",
"230 502 LINE",
"22 502 LINE",
"22 -200 LINE"
);
},
{
closed = 1;
nodes = (
"247 158 OFFCURVE",
"230 174 OFFCURVE",
"230 199 CURVE SMOOTH",
"230 291 LINE SMOOTH",
"230 316 OFFCURVE",
"247 332 OFFCURVE",
"273 332 CURVE SMOOTH",
"299 332 OFFCURVE",
"317 316 OFFCURVE",
"317 291 CURVE SMOOTH",
"317 199 LINE SMOOTH",
"317 174 OFFCURVE",
"299 158 OFFCURVE",
"273 158 CURVE SMOOTH"
);
}
);
width = 543;
}
);
unicode = 0070;
},
{
color = 1;
glyphname = r;
lastChange = "2016-10-17 08:10:56 +0000";
layers = (
{
layerId = "262880E7-CFE1-4BDA-902E-E24798F3240A";
paths = (
{
closed = 1;
nodes = (
"156 331 LINE",
"156 418 OFFCURVE",
"206 483 OFFCURVE",
"288 483 CURVE SMOOTH",
"298 483 OFFCURVE",
"315 479 OFFCURVE",
"324 475 CURVE",
"341 488 LINE",
"327 496 OFFCURVE",
"307 502 OFFCURVE",
"288 502 CURVE SMOOTH",
"193 502 OFFCURVE",
"140 429 OFFCURVE",
"140 331 CURVE"
);
},
{
closed = 1;
nodes = (
"156 -1 LINE",
"156 500 LINE",
"134 500 LINE",
"134 -1 LINE"
);
}
);
width = 437;
},
{
layerId = "4F25946F-63AC-42D6-8D55-01CF6A99025B";
paths = (
{
closed = 1;
nodes = (
"230 268 LINE",
"230 302 OFFCURVE",
"269 317 OFFCURVE",
"306 317 CURVE SMOOTH",
"324 317 OFFCURVE",
"359 310 OFFCURVE",
"364 301 CURVE",
"406 464 LINE",
"402 486 OFFCURVE",
"378 505 OFFCURVE",
"335 505 CURVE SMOOTH",
"220 505 OFFCURVE",
"166 382 OFFCURVE",
"166 268 CURVE"
);
},
{
closed = 1;
nodes = (
"230 0 LINE",
"230 500 LINE",
"22 500 LINE",
"22 0 LINE"
);
}
);
width = 421;
},
{
associatedMasterId = "262880E7-CFE1-4BDA-902E-E24798F3240A";
layerId = "42CC11FC-6CFD-42F7-A362-E84ACC39CCA1";
name = "Medium{91,100}";
paths = (
{
closed = 1;
nodes = (
"191 307 LINE",
"191 374 OFFCURVE",
"237 420 OFFCURVE",
"302 420 CURVE SMOOTH",
"315 420 OFFCURVE",
"339 415 OFFCURVE",
"346 409 CURVE",
"373 479 LINE",
"363 492 OFFCURVE",
"341 503 OFFCURVE",
"313 503 CURVE SMOOTH",
"210 503 OFFCURVE",
"137 411 OFFCURVE",
"137 307 CURVE"
);
},
{
closed = 1;
nodes = (
"191 -1 LINE",
"191 500 LINE",
"99 500 LINE",
"99 -1 LINE"
);
}
);
width = 405;
}
);
unicode = 0072;
},
{
color = 1;
glyphname = s;
lastChange = "2016-10-17 08:10:56 +0000";
layers = (
{
layerId = "262880E7-CFE1-4BDA-902E-E24798F3240A";
paths = (
{
closed = 1;
nodes = (
"368 -3 OFFCURVE",
"435 47 OFFCURVE",
"435 126 CURVE SMOOTH",
"435 214 OFFCURVE",
"351 237 OFFCURVE",
"271 265 CURVE SMOOTH",
"182 296 OFFCURVE",
"133 311 OFFCURVE",
"133 372 CURVE SMOOTH",
"133 437 OFFCURVE",
"189 484 OFFCURVE",
"272 484 CURVE SMOOTH",
"355 484 OFFCURVE",
"411 438 OFFCURVE",
"411 369 CURVE SMOOTH",
"411 368 LINE",
"433 368 LINE",
"433 369 LINE SMOOTH",
"433 451 OFFCURVE",
"369 503 OFFCURVE",
"272 503 CURVE SMOOTH",
"175 503 OFFCURVE",
"111 450 OFFCURVE",
"111 372 CURVE SMOOTH",
"111 290 OFFCURVE",
"182 271 OFFCURVE",
"267 241 CURVE SMOOTH",
"343 214 OFFCURVE",
"413 196 OFFCURVE",
"413 126 CURVE SMOOTH",
"413 61 OFFCURVE",
"354 17 OFFCURVE",
"270 17 CURVE SMOOTH",
"186 17 OFFCURVE",
"131 60 OFFCURVE",
"131 126 CURVE SMOOTH",
"131 127 LINE",
"109 127 LINE",
"109 126 LINE SMOOTH",
"109 48 OFFCURVE",
"172 -3 OFFCURVE",
"270 -3 CURVE SMOOTH"
);
}
);
width = 544;
},
{
layerId = "4F25946F-63AC-42D6-8D55-01CF6A99025B";
paths = (
{
closed = 1;
nodes = (
"407 -10 OFFCURVE",
"492 62 OFFCURVE",
"492 151 CURVE SMOOTH",
"492 216 OFFCURVE",
"447 270 OFFCURVE",
"356 296 CURVE SMOOTH",
"296 313 OFFCURVE",
"220 318 OFFCURVE",
"220 351 CURVE SMOOTH",
"220 364 OFFCURVE",
"233 378 OFFCURVE",
"253 378 CURVE SMOOTH",
"273 378 OFFCURVE",
"289 364 OFFCURVE",
"289 341 CURVE",
"290 331 LINE",
"484 331 LINE",
"484 341 LINE",
"480 439 OFFCURVE",
"395 510 OFFCURVE",
"249 510 CURVE SMOOTH",
"101 510 OFFCURVE",
"17 437 OFFCURVE",
"17 353 CURVE SMOOTH",
"17 292 OFFCURVE",
"61 235 OFFCURVE",
"155 208 CURVE SMOOTH",
"211 192 OFFCURVE",
"283 187 OFFCURVE",
"283 149 CURVE SMOOTH",
"283 136 OFFCURVE",
"275 123 OFFCURVE",
"253 123 CURVE SMOOTH",
"234 123 OFFCURVE",
"219 133 OFFCURVE",
"215 155 CURVE SMOOTH",
"212 172 LINE",
"16 172 LINE",
"16 162 LINE",
"16 66 OFFCURVE",
"107 -10 OFFCURVE",
"259 -10 CURVE SMOOTH"
);
}
);
width = 508;
},
{
associatedMasterId = "262880E7-CFE1-4BDA-902E-E24798F3240A";
layerId = "677A5083-0B4E-4805-9AE1-F115960A3564";
name = "Semi Bold{101, 100}";
paths = (
{
closed = 1;
nodes = (
"365 -10 OFFCURVE",
"436 51 OFFCURVE",
"436 137 CURVE SMOOTH",
"436 213 OFFCURVE",
"381 258 OFFCURVE",
"297 286 CURVE SMOOTH",
"238 306 OFFCURVE",
"170 313 OFFCURVE",
"170 363 CURVE SMOOTH",
"170 395 OFFCURVE",
"199 424 OFFCURVE",
"246 424 CURVE SMOOTH",
"291 424 OFFCURVE",
"323 399 OFFCURVE",
"324 358 CURVE SMOOTH",
"324 352 LINE",
"431 352 LINE",
"431 358 LINE SMOOTH",
"431 446 OFFCURVE",
"360 510 OFFCURVE",
"245 510 CURVE SMOOTH",
"130 510 OFFCURVE",
"61 447 OFFCURVE",
"61 363 CURVE SMOOTH",
"61 291 OFFCURVE",
"113 248 OFFCURVE",
"197 219 CURVE SMOOTH",
"255 199 OFFCURVE",
"323 189 OFFCURVE",
"323 137 CURVE SMOOTH",
"323 100 OFFCURVE",
"290 75 OFFCURVE",
"245 75 CURVE SMOOTH",
"199 75 OFFCURVE",
"169 100 OFFCURVE",
"169 137 CURVE SMOOTH",
"169 146 LINE",
"59 146 LINE",
"59 141 LINE SMOOTH",
"59 54 OFFCURVE",
"132 -10 OFFCURVE",
"250 -10 CURVE SMOOTH"
);
}
);
width = 494;
}
);
unicode = 0073;
},
{
color = 1;
glyphname = t;
lastChange = "2016-10-17 08:10:56 +0000";
layers = (
{
layerId = "262880E7-CFE1-4BDA-902E-E24798F3240A";
paths = (
{
closed = 1;
nodes = (
"310 2 LINE",
"310 24 LINE",
"286 24 LINE SMOOTH",
"205 24 OFFCURVE",
"182 59 OFFCURVE",
"182 155 CURVE SMOOTH",
"182 479 LINE",
"296 479 LINE",
"296 500 LINE",
"182 500 LINE",
"182 610 LINE",
"160 610 LINE",
"160 500 LINE",
"96 500 LINE",
"96 479 LINE",
"160 479 LINE",
"160 155 LINE SMOOTH",
"160 45 OFFCURVE",
"192 2 OFFCURVE",
"286 2 CURVE SMOOTH"
);
}
);
width = 408;
},
{
layerId = "4F25946F-63AC-42D6-8D55-01CF6A99025B";
paths = (
{
closed = 1;
nodes = (
"313 1 LINE",
"319 181 LINE",
"316 181 LINE",
"278 177 OFFCURVE",
"256 172 OFFCURVE",
"256 203 CURVE SMOOTH",
"256 326 LINE",
"336 326 LINE",
"336 500 LINE",
"256 500 LINE",
"256 700 LINE",
"62 700 LINE",
"62 500 LINE",
"18 500 LINE",
"18 326 LINE",
"62 326 LINE",
"62 163 LINE SMOOTH",
"62 3 OFFCURVE",
"125 -24 OFFCURVE",
"307 1 CURVE"
);
}
);
width = 354;
}
);
unicode = 0074;
},
{
color = 1;
glyphname = u;
lastChange = "2016-10-17 08:10:56 +0000";
layers = (
{
layerId = "262880E7-CFE1-4BDA-902E-E24798F3240A";
paths = (
{
closed = 1;
nodes = (
"386 -3 OFFCURVE",
"445 58 OFFCURVE",
"445 157 CURVE",
"428 157 LINE",
"428 70 OFFCURVE",
"375 17 OFFCURVE",
"289 17 CURVE SMOOTH",
"203 17 OFFCURVE",
"150 70 OFFCURVE",
"150 157 CURVE SMOOTH",
"150 500 LINE",
"128 500 LINE",
"128 156 LINE SMOOTH",
"128 57 OFFCURVE",
"189 -3 OFFCURVE",
"289 -3 CURVE SMOOTH"
);
},
{
closed = 1;
nodes = (
"450 0 LINE",
"450 500 LINE",
"428 500 LINE",
"428 0 LINE"
);
}
);
width = 584;
},
{
layerId = "4F25946F-63AC-42D6-8D55-01CF6A99025B";
paths = (
{
closed = 1;
nodes = (
"334 -2 OFFCURVE",
"381 96 OFFCURVE",
"381 196 CURVE",
"316 188 LINE",
"316 165 OFFCURVE",
"298 150 OFFCURVE",
"272 150 CURVE SMOOTH",
"246 150 OFFCURVE",
"229 165 OFFCURVE",
"229 188 CURVE SMOOTH",
"229 500 LINE",
"21 500 LINE",
"21 150 LINE SMOOTH",
"21 49 OFFCURVE",
"70 -2 OFFCURVE",
"181 -2 CURVE SMOOTH"
);
},
{
closed = 1;
nodes = (
"523 0 LINE",
"523 500 LINE",
"316 500 LINE",
"316 0 LINE"
);
}
);
width = 545;
},
{
associatedMasterId = "4F25946F-63AC-42D6-8D55-01CF6A99025B";
layerId = "47FA07B0-C6A0-4AEE-ADEB-F55ADBF433D4";
name = "Medium{91,100}";
paths = (
{
closed = 1;
nodes = (
"372 -6 OFFCURVE",
"436 64 OFFCURVE",
"436 168 CURVE",
"390 168 LINE",
"390 107 OFFCURVE",
"349 67 OFFCURVE",
"287 67 CURVE SMOOTH",
"226 67 OFFCURVE",
"185 107 OFFCURVE",
"185 168 CURVE SMOOTH",
"185 500 LINE",
"92 500 LINE",
"92 154 LINE SMOOTH",
"92 58 OFFCURVE",
"166 -6 OFFCURVE",
"277 -6 CURVE SMOOTH"
);
},
{
closed = 1;
nodes = (
"483 0 LINE",
"483 500 LINE",
"390 500 LINE",
"390 0 LINE"
);
}
);
width = 582;
}
);
unicode = 0075;
},
{
color = 1;
glyphname = v;
lastChange = "2016-10-17 08:10:56 +0000";
layers = (
{
layerId = "262880E7-CFE1-4BDA-902E-E24798F3240A";
paths = (
{
closed = 1;
nodes = (
"286 3 LINE",
"451 500 LINE",
"429 500 LINE",
"275 38 LINE",
"121 500 LINE",
"99 500 LINE",
"264 3 LINE"
);
}
);
width = 550;
},
{
layerId = "4F25946F-63AC-42D6-8D55-01CF6A99025B";
paths = (
{
closed = 1;
nodes = (
"371 0 LINE",
"535 500 LINE",
"324 500 LINE",
"275 257 LINE",
"226 500 LINE",
"15 500 LINE",
"179 0 LINE"
);
}
);
width = 550;
},
{
associatedMasterId = "262880E7-CFE1-4BDA-902E-E24798F3240A";
layerId = "30C42329-3409-4879-A8EC-0B65B1A31C66";
name = "Medium { 91, 100}";
paths = (
{
closed = 1;
nodes = (
"285 0 LINE",
"442 500 LINE",
"349 500 LINE",
"241 129 LINE",
"133 500 LINE",
"41 500 LINE",
"198 0 LINE"
);
}
);
width = 483;
}
);
unicode = 0076;
},
{
color = 1;
glyphname = w;
lastChange = "2016-10-17 08:10:55 +0000";
layers = (
{
layerId = "262880E7-CFE1-4BDA-902E-E24798F3240A";
paths = (
{
closed = 1;
nodes = (
"257 0 LINE",
"381 458 LINE",
"505 0 LINE",
"527 0 LINE",
"662 500 LINE",
"640 500 LINE",
"516 42 LINE",
"392 500 LINE",
"370 500 LINE",
"246 42 LINE",
"122 500 LINE",
"100 500 LINE",
"235 0 LINE"
);
}
);
width = 762;
},
{
layerId = "4F25946F-63AC-42D6-8D55-01CF6A99025B";
paths = (
{
closed = 1;
nodes = (
"325 0 LINE",
"358 240 LINE",
"395 0 LINE",
"585 0 LINE",
"705 500 LINE",
"511 500 LINE",
"478 287 LINE",
"442 500 LINE",
"272 500 LINE",
"237 287 LINE",
"202 500 LINE",
"15 500 LINE",
"134 0 LINE"
);
}
);
width = 720;
}
);
unicode = 0077;
},
{
color = 1;
glyphname = x;
lastChange = "2016-10-17 08:10:57 +0000";
layers = (
{
layerId = "262880E7-CFE1-4BDA-902E-E24798F3240A";
paths = (
{
closed = 1;
nodes = (
"429 501 LINE",
"275 267 LINE",
"121 501 LINE",
"99 501 LINE",
"264 250 LINE",
"99 -1 LINE",
"121 -1 LINE",
"275 233 LINE",
"429 -1 LINE",
"451 -1 LINE",
"286 250 LINE",
"451 501 LINE"
);
}
);
width = 550;
},
{
layerId = "4F25946F-63AC-42D6-8D55-01CF6A99025B";
paths = (
{
closed = 1;
nodes = (
"326 500 LINE",
"281 411 LINE",
"237 500 LINE",
"15 500 LINE",
"173 250 LINE",
"15 0 LINE",
"237 0 LINE",
"281 89 LINE",
"326 0 LINE",
"547 0 LINE",
"390 250 LINE",
"547 500 LINE"
);
}
);
width = 562;
},
{
associatedMasterId = "262880E7-CFE1-4BDA-902E-E24798F3240A";
layerId = "A7F0FF68-370D-4ABA-A088-97B4F33DE289";
name = "Light Oct 15 16, 02:53";
paths = (
{
closed = 1;
nodes = (
"368 501 LINE",
"390 501 LINE",
"60 -1 LINE",
"38 -1 LINE"
);
},
{
closed = 1;
nodes = (
"38 501 LINE",
"60 501 LINE",
"390 -1 LINE",
"368 -1 LINE"
);
}
);
width = 428;
},
{
associatedMasterId = "4F25946F-63AC-42D6-8D55-01CF6A99025B";
layerId = "C8E6816F-D14D-432C-92C0-4654658DD355";
name = "Bold Oct 15 16, 02:53";
paths = (
{
closed = 1;
nodes = (
"306 500 LINE",
"527 500 LINE",
"217 0 LINE",
"-5 0 LINE"
);
},
{
closed = 1;
nodes = (
"-5 500 LINE",
"217 500 LINE",
"527 0 LINE",
"306 0 LINE"
);
}
);
width = 522;
}
);
unicode = 0078;
},
{
color = 1;
glyphname = y;
lastChange = "2016-10-17 08:10:56 +0000";
layers = (
{
layerId = "262880E7-CFE1-4BDA-902E-E24798F3240A";
paths = (
{
closed = 1;
nodes = (
"276 33 LINE",
"121 500 LINE",
"99 500 LINE",
"265 -1 LINE",
"243 -67 LINE SMOOTH",
"209 -169 OFFCURVE",
"186 -190 OFFCURVE",
"123 -190 CURVE",
"123 -211 LINE",
"198 -211 OFFCURVE",
"230 -184 OFFCURVE",
"263 -73 CURVE SMOOTH",
"453 500 LINE",
"431 500 LINE"
);
}
);
width = 552;
},
{
layerId = "4F25946F-63AC-42D6-8D55-01CF6A99025B";
paths = (
{
closed = 1;
nodes = (
"269 321 LINE",
"223 500 LINE",
"15 500 LINE",
"178 106 LINE",
"170 82 LINE SMOOTH",
"157 42 OFFCURVE",
"142 30 OFFCURVE",
"84 30 CURVE",
"84 -128 LINE",
"250 -128 OFFCURVE",
"308 -72 OFFCURVE",
"348 35 CURVE SMOOTH",
"523 500 LINE",
"315 500 LINE"
);
}
);
width = 538;
}
);
unicode = 0079;
},
{
color = 1;
glyphname = z;
lastChange = "2016-10-17 08:10:55 +0000";
layers = (
{
layerId = "262880E7-CFE1-4BDA-902E-E24798F3240A";
paths = (
{
closed = 1;
nodes = (
"417 1 LINE",
"417 23 LINE",
"124 23 LINE",
"428 478 LINE",
"428 499 LINE",
"105 499 LINE",
"105 478 LINE",
"404 478 LINE",
"100 23 LINE",
"100 1 LINE"
);
}
);
width = 528;
},
{
layerId = "4F25946F-63AC-42D6-8D55-01CF6A99025B";
paths = (
{
closed = 1;
nodes = (
"437 10 LINE",
"437 157 LINE",
"262 157 LINE",
"441 348 LINE",
"441 496 LINE",
"20 496 LINE",
"20 348 LINE",
"208 347 LINE",
"21 157 LINE",
"20 10 LINE"
);
}
);
width = 460;
},
{
associatedMasterId = "4F25946F-63AC-42D6-8D55-01CF6A99025B";
layerId = "516F1C78-99C1-4D19-A6A1-804BC5CB958E";
name = "Demibold {119,100}";
paths = (
{
closed = 1;
nodes = (
"416 6 LINE",
"416 113 LINE",
"210 113 LINE",
"418 386 LINE",
"418 497 LINE",
"59 497 LINE",
"59 386 LINE",
"282 386 LINE",
"69 113 LINE",
"69 6 LINE"
);
}
);
width = 470;
}
);
unicode = 007A;
},
{
color = 1;
glyphname = zero;
lastChange = "2016-10-17 08:10:55 +0000";
layers = (
{
layerId = "262880E7-CFE1-4BDA-902E-E24798F3240A";
paths = (
{
closed = 1;
nodes = (
"418 -9 OFFCURVE",
"473 45 OFFCURVE",
"473 150 CURVE SMOOTH",
"473 550 LINE SMOOTH",
"473 655 OFFCURVE",
"418 709 OFFCURVE",
"313 709 CURVE SMOOTH",
"208 709 OFFCURVE",
"153 655 OFFCURVE",
"153 550 CURVE SMOOTH",
"153 150 LINE SMOOTH",
"153 45 OFFCURVE",
"208 -9 OFFCURVE",
"313 -9 CURVE SMOOTH"
);
},
{
closed = 1;
nodes = (
"222 11 OFFCURVE",
"175 58 OFFCURVE",
"175 150 CURVE SMOOTH",
"175 550 LINE SMOOTH",
"175 642 OFFCURVE",
"222 690 OFFCURVE",
"313 690 CURVE SMOOTH",
"404 690 OFFCURVE",
"451 642 OFFCURVE",
"451 550 CURVE SMOOTH",
"451 150 LINE SMOOTH",
"451 58 OFFCURVE",
"404 11 OFFCURVE",
"313 11 CURVE SMOOTH"
);
}
);
width = 626;
},
{
layerId = "4F25946F-63AC-42D6-8D55-01CF6A99025B";
paths = (
{
closed = 1;
nodes = (
"455 -10 OFFCURVE",
"543 73 OFFCURVE",
"543 233 CURVE SMOOTH",
"543 467 LINE SMOOTH",
"543 627 OFFCURVE",
"455 710 OFFCURVE",
"283 710 CURVE SMOOTH",
"111 710 OFFCURVE",
"23 627 OFFCURVE",
"23 467 CURVE SMOOTH",
"23 233 LINE SMOOTH",
"23 73 OFFCURVE",
"111 -10 OFFCURVE",
"283 -10 CURVE SMOOTH"
);
},
{
closed = 1;
nodes = (
"254 174 OFFCURVE",
"235 194 OFFCURVE",
"235 223 CURVE SMOOTH",
"235 477 LINE SMOOTH",
"235 506 OFFCURVE",
"254 526 OFFCURVE",
"283 526 CURVE SMOOTH",
"312 526 OFFCURVE",
"331 506 OFFCURVE",
"331 477 CURVE SMOOTH",
"331 223 LINE SMOOTH",
"331 194 OFFCURVE",
"312 174 OFFCURVE",
"283 174 CURVE SMOOTH"
);
}
);
width = 566;
}
);
unicode = 0030;
},
{
color = 1;
glyphname = one;
lastChange = "2016-10-17 08:10:57 +0000";
layers = (
{
layerId = "4F25946F-63AC-42D6-8D55-01CF6A99025B";
paths = (
{
closed = 1;
nodes = (
"296 0 LINE",
"296 700 LINE",
"84 700 LINE",
"84 0 LINE"
);
},
{
closed = 1;
nodes = (
"21 512 LINE",
"84 512 LINE",
"84 700 LINE",
"21 674 LINE"
);
}
);
width = 323;
},
{
layerId = "262880E7-CFE1-4BDA-902E-E24798F3240A";
paths = (
{
closed = 1;
nodes = (
"186 0 LINE",
"186 700 LINE",
"164 700 LINE",
"164 0 LINE"
);
},
{
closed = 1;
nodes = (
"123 646 LINE",
"164 662 LINE",
"164 700 LINE",
"123 668 LINE"
);
}
);
width = 346;
}
);
unicode = 0031;
},
{
color = 1;
glyphname = two;
lastChange = "2016-10-17 08:10:56 +0000";
layers = (
{
layerId = "4F25946F-63AC-42D6-8D55-01CF6A99025B";
paths = (
{
closed = 1;
nodes = (
"522 0 LINE",
"522 188 LINE",
"275 188 LINE",
"506 447 LINE",
"523 475 OFFCURVE",
"534 500 OFFCURVE",
"534 534 CURVE SMOOTH",
"534 633 OFFCURVE",
"439 700 OFFCURVE",
"282 700 CURVE SMOOTH",
"123 700 OFFCURVE",
"22 631 OFFCURVE",
"22 519 CURVE",
"22 454 LINE",
"230 455 LINE",
"230 481 LINE",
"230 506 OFFCURVE",
"247 523 OFFCURVE",
"272 523 CURVE SMOOTH",
"300 523 OFFCURVE",
"312 502 OFFCURVE",
"312 489 CURVE SMOOTH",
"312 474 OFFCURVE",
"298 455 OFFCURVE",
"273 426 CURVE",
"25 171 LINE",
"25 0 LINE"
);
}
);
width = 554;
},
{
layerId = "262880E7-CFE1-4BDA-902E-E24798F3240A";
paths = (
{
closed = 1;
nodes = (
"463 0 LINE",
"463 22 LINE",
"160 22 LINE",
"400 364 LINE SMOOTH",
"438 419 OFFCURVE",
"462 470 OFFCURVE",
"462 530 CURVE SMOOTH",
"462 615 OFFCURVE",
"413 710 OFFCURVE",
"299 710 CURVE SMOOTH",
"194 710 OFFCURVE",
"131 635 OFFCURVE",
"131 500 CURVE",
"131 479 LINE",
"152 479 LINE",
"152 500 LINE SMOOTH",
"152 618 OFFCURVE",
"207 690 OFFCURVE",
"298 690 CURVE SMOOTH",
"386 690 OFFCURVE",
"441 622 OFFCURVE",
"441 530 CURVE SMOOTH",
"441 478 OFFCURVE",
"423 434 OFFCURVE",
"395 395 CURVE SMOOTH",
"132 21 LINE",
"131 0 LINE"
);
}
);
width = 595;
}
);
unicode = 0032;
},
{
color = 1;
glyphname = eight;
lastChange = "2016-10-17 08:10:56 +0000";
layers = (
{
layerId = "262880E7-CFE1-4BDA-902E-E24798F3240A";
paths = (
{
closed = 1;
nodes = (
"411 364 OFFCURVE",
"466 418 OFFCURVE",
"466 523 CURVE SMOOTH",
"466 548 LINE SMOOTH",
"466 653 OFFCURVE",
"411 707 OFFCURVE",
"306 707 CURVE SMOOTH",
"201 707 OFFCURVE",
"146 653 OFFCURVE",
"146 548 CURVE SMOOTH",
"146 523 LINE SMOOTH",
"146 418 OFFCURVE",
"201 364 OFFCURVE",
"306 364 CURVE SMOOTH"
);
},
{
closed = 1;
nodes = (
"215 384 OFFCURVE",
"168 431 OFFCURVE",
"168 523 CURVE SMOOTH",
"168 548 LINE SMOOTH",
"168 640 OFFCURVE",
"215 688 OFFCURVE",
"306 688 CURVE SMOOTH",
"397 688 OFFCURVE",
"444 640 OFFCURVE",
"444 548 CURVE SMOOTH",
"444 523 LINE SMOOTH",
"444 431 OFFCURVE",
"397 384 OFFCURVE",
"306 384 CURVE SMOOTH"
);
},
{
closed = 1;
nodes = (
"411 -18 OFFCURVE",
"466 36 OFFCURVE",
"466 141 CURVE SMOOTH",
"466 225 LINE SMOOTH",
"466 330 OFFCURVE",
"411 384 OFFCURVE",
"306 384 CURVE SMOOTH",
"201 384 OFFCURVE",
"146 330 OFFCURVE",
"146 225 CURVE SMOOTH",
"146 141 LINE SMOOTH",
"146 36 OFFCURVE",
"201 -18 OFFCURVE",
"306 -18 CURVE SMOOTH"
);
},
{
closed = 1;
nodes = (
"215 2 OFFCURVE",
"168 49 OFFCURVE",
"168 141 CURVE SMOOTH",
"168 225 LINE SMOOTH",
"168 317 OFFCURVE",
"215 365 OFFCURVE",
"306 365 CURVE SMOOTH",
"397 365 OFFCURVE",
"444 317 OFFCURVE",
"444 225 CURVE SMOOTH",
"444 141 LINE SMOOTH",
"444 49 OFFCURVE",
"397 2 OFFCURVE",
"306 2 CURVE SMOOTH"
);
}
);
width = 612;
},
{
layerId = "4F25946F-63AC-42D6-8D55-01CF6A99025B";
paths = (
{
closed = 1;
nodes = (
"319 337 OFFCURVE",
"510 343 OFFCURVE",
"510 498 CURVE",
"510 507 LINE",
"508 641 OFFCURVE",
"427 711 OFFCURVE",
"274 711 CURVE",
"120 711 OFFCURVE",
"40 650 OFFCURVE",
"40 516 CURVE",
"40 507 LINE",
"41 344 OFFCURVE",
"221 337 OFFCURVE",
"274 337 CURVE SMOOTH"
);
},
{
closed = 1;
nodes = (
"248 452 OFFCURVE",
"231 468 OFFCURVE",
"231 493 CURVE SMOOTH",
"231 537 LINE SMOOTH",
"231 562 OFFCURVE",
"248 578 OFFCURVE",
"274 578 CURVE SMOOTH",
"300 578 OFFCURVE",
"318 562 OFFCURVE",
"318 537 CURVE SMOOTH",
"318 493 LINE SMOOTH",
"318 468 OFFCURVE",
"300 452 OFFCURVE",
"274 452 CURVE SMOOTH"
);
},
{
closed = 1;
nodes = (
"449 -5 OFFCURVE",
"530 77 OFFCURVE",
"530 202 CURVE",
"530 231 LINE",
"530 324 OFFCURVE",
"439 455 OFFCURVE",
"275 401 CURVE",
"117 455 OFFCURVE",
"20 316 OFFCURVE",
"20 231 CURVE",
"20 202 LINE",
"21 69 OFFCURVE",
"107 -5 OFFCURVE",
"274 -5 CURVE SMOOTH"
);
},
{
closed = 1;
nodes = (
"248 143 OFFCURVE",
"231 159 OFFCURVE",
"231 184 CURVE SMOOTH",
"231 262 LINE SMOOTH",
"231 287 OFFCURVE",
"248 303 OFFCURVE",
"274 303 CURVE",
"300 303 OFFCURVE",
"318 287 OFFCURVE",
"318 262 CURVE SMOOTH",
"318 184 LINE SMOOTH",
"318 159 OFFCURVE",
"300 143 OFFCURVE",
"274 143 CURVE SMOOTH"
);
}
);
width = 550;
},
{
associatedMasterId = "4F25946F-63AC-42D6-8D55-01CF6A99025B";
layerId = "9541491C-EA7C-4850-9E65-38E203544E44";
name = "Medium {91,100}";
paths = (
{
closed = 1;
nodes = (
"372 344 OFFCURVE",
"442 407 OFFCURVE",
"442 514 CURVE SMOOTH",
"442 532 LINE SMOOTH",
"442 643 OFFCURVE",
"372 709 OFFCURVE",
"254 709 CURVE SMOOTH",
"135 709 OFFCURVE",
"65 645 OFFCURVE",
"65 536 CURVE SMOOTH",
"65 517 LINE SMOOTH",
"66 408 OFFCURVE",
"136 344 OFFCURVE",
"254 344 CURVE SMOOTH"
);
},
{
closed = 1;
nodes = (
"193 409 OFFCURVE",
"152 450 OFFCURVE",
"152 511 CURVE SMOOTH",
"152 540 LINE SMOOTH",
"152 601 OFFCURVE",
"193 642 OFFCURVE",
"254 642 CURVE SMOOTH",
"315 642 OFFCURVE",
"356 601 OFFCURVE",
"356 540 CURVE SMOOTH",
"356 511 LINE SMOOTH",
"356 450 OFFCURVE",
"315 409 OFFCURVE",
"254 409 CURVE SMOOTH"
);
},
{
closed = 1;
nodes = (
"377 -13 OFFCURVE",
"450 53 OFFCURVE",
"450 164 CURVE SMOOTH",
"450 227 LINE SMOOTH",
"450 350 OFFCURVE",
"377 410 OFFCURVE",
"254 390 CURVE SMOOTH",
"131 411 OFFCURVE",
"58 350 OFFCURVE",
"58 227 CURVE SMOOTH",
"58 164 LINE SMOOTH",
"58 53 OFFCURVE",
"131 -13 OFFCURVE",
"254 -13 CURVE SMOOTH"
);
},
{
closed = 1;
nodes = (
"193 61 OFFCURVE",
"152 102 OFFCURVE",
"152 163 CURVE SMOOTH",
"152 242 LINE SMOOTH",
"152 303 OFFCURVE",
"193 344 OFFCURVE",
"254 344 CURVE SMOOTH",
"315 344 OFFCURVE",
"356 303 OFFCURVE",
"356 242 CURVE SMOOTH",
"356 163 LINE SMOOTH",
"356 102 OFFCURVE",
"315 61 OFFCURVE",
"254 61 CURVE SMOOTH"
);
}
);
width = 508;
}
);
unicode = 0038;
},
{
color = 1;
glyphname = colon;
lastChange = "2016-10-17 08:10:57 +0000";
layers = (
{
layerId = "262880E7-CFE1-4BDA-902E-E24798F3240A";
paths = (
{
closed = 1;
nodes = (
"231 37 OFFCURVE",
"250 55 OFFCURVE",
"250 78 CURVE SMOOTH",
"250 100 OFFCURVE",
"231 118 OFFCURVE",
"209 118 CURVE SMOOTH",
"187 118 OFFCURVE",
"168 100 OFFCURVE",
"168 78 CURVE SMOOTH",
"168 55 OFFCURVE",
"186 37 OFFCURVE",
"209 37 CURVE SMOOTH"
);
},
{
closed = 1;
nodes = (
"231 350 OFFCURVE",
"250 368 OFFCURVE",
"250 391 CURVE SMOOTH",
"250 413 OFFCURVE",
"231 431 OFFCURVE",
"209 431 CURVE SMOOTH",
"187 431 OFFCURVE",
"168 413 OFFCURVE",
"168 391 CURVE SMOOTH",
"168 368 OFFCURVE",
"186 350 OFFCURVE",
"209 350 CURVE SMOOTH"
);
}
);
width = 418;
},
{
layerId = "4F25946F-63AC-42D6-8D55-01CF6A99025B";
paths = (
{
closed = 1;
nodes = (
"188 -6 OFFCURVE",
"237 40 OFFCURVE",
"237 99 CURVE",
"237 156 OFFCURVE",
"188 202 OFFCURVE",
"131 202 CURVE SMOOTH",
"74 202 OFFCURVE",
"25 156 OFFCURVE",
"25 99 CURVE SMOOTH",
"25 40 OFFCURVE",
"72 -6 OFFCURVE",
"131 -6 CURVE SMOOTH"
);
},
{
closed = 1;
nodes = (
"188 288 OFFCURVE",
"237 334 OFFCURVE",
"237 393 CURVE",
"237 450 OFFCURVE",
"188 496 OFFCURVE",
"131 496 CURVE SMOOTH",
"74 496 OFFCURVE",
"25 450 OFFCURVE",
"25 393 CURVE SMOOTH",
"25 334 OFFCURVE",
"72 288 OFFCURVE",
"131 288 CURVE SMOOTH"
);
}
);
width = 262;
}
);
unicode = 003A;
},
{
color = 1;
glyphname = comma;
lastChange = "2016-10-17 08:10:56 +0000";
layers = (
{
layerId = "262880E7-CFE1-4BDA-902E-E24798F3240A";
paths = (
{
closed = 1;
nodes = (
"239 153 LINE",
"213 153 LINE",
"163 -66 LINE",
"184 -66 LINE"
);
}
);
width = 401;
},
{
layerId = "4F25946F-63AC-42D6-8D55-01CF6A99025B";
paths = (
{
closed = 1;
nodes = (
"225 143 LINE",
"45 142 LINE",
"26 -86 LINE",
"174 -86 LINE"
);
}
);
width = 250;
}
);
unicode = 002C;
},
{
color = 1;
glyphname = exclam;
lastChange = "2016-10-17 08:10:56 +0000";
layers = (
{
layerId = "262880E7-CFE1-4BDA-902E-E24798F3240A";
paths = (
{
closed = 1;
nodes = (
"212 220 LINE",
"212 700 LINE",
"190 700 LINE",
"190 220 LINE"
);
},
{
closed = 1;
nodes = (
"220 5 OFFCURVE",
"239 23 OFFCURVE",
"239 46 CURVE SMOOTH",
"239 68 OFFCURVE",
"220 86 OFFCURVE",
"198 86 CURVE SMOOTH",
"176 86 OFFCURVE",
"157 68 OFFCURVE",
"157 46 CURVE SMOOTH",
"157 23 OFFCURVE",
"175 5 OFFCURVE",
"198 5 CURVE SMOOTH"
);
}
);
width = 401;
},
{
layerId = "4F25946F-63AC-42D6-8D55-01CF6A99025B";
paths = (
{
closed = 1;
nodes = (
"207 250 LINE",
"237 700 LINE",
"29 700 LINE",
"59 250 LINE"
);
},
{
closed = 1;
nodes = (
"188 -6 OFFCURVE",
"237 40 OFFCURVE",
"237 99 CURVE",
"237 156 OFFCURVE",
"188 202 OFFCURVE",
"131 202 CURVE SMOOTH",
"74 202 OFFCURVE",
"25 156 OFFCURVE",
"25 99 CURVE SMOOTH",
"25 40 OFFCURVE",
"72 -6 OFFCURVE",
"131 -6 CURVE SMOOTH"
);
}
);
width = 262;
}
);
unicode = 0021;
},
{
color = 1;
glyphname = period;
lastChange = "2016-10-17 08:10:55 +0000";
layers = (
{
layerId = "262880E7-CFE1-4BDA-902E-E24798F3240A";
paths = (
{
closed = 1;
nodes = (
"242 5 OFFCURVE",
"261 23 OFFCURVE",
"261 46 CURVE SMOOTH",
"261 68 OFFCURVE",
"242 86 OFFCURVE",
"220 86 CURVE SMOOTH",
"198 86 OFFCURVE",
"179 68 OFFCURVE",
"179 46 CURVE SMOOTH",
"179 23 OFFCURVE",
"197 5 OFFCURVE",
"220 5 CURVE SMOOTH"
);
}
);
width = 440;
},
{
layerId = "4F25946F-63AC-42D6-8D55-01CF6A99025B";
paths = (
{
closed = 1;
nodes = (
"189 -6 OFFCURVE",
"238 40 OFFCURVE",
"238 99 CURVE",
"238 156 OFFCURVE",
"189 202 OFFCURVE",
"132 202 CURVE SMOOTH",
"75 202 OFFCURVE",
"26 156 OFFCURVE",
"26 99 CURVE SMOOTH",
"26 40 OFFCURVE",
"73 -6 OFFCURVE",
"132 -6 CURVE SMOOTH"
);
}
);
width = 264;
}
);
unicode = 002E;
},
{
color = 1;
glyphname = question;
lastChange = "2016-10-17 08:10:56 +0000";
layers = (
{
layerId = "4F25946F-63AC-42D6-8D55-01CF6A99025B";
paths = (
{
closed = 1;
nodes = (
"370 223 LINE",
"370 238 OFFCURVE",
"370 256 OFFCURVE",
"370 262 CURVE SMOOTH",
"370 330 OFFCURVE",
"526 329 OFFCURVE",
"526 494 CURVE SMOOTH",
"526 629 OFFCURVE",
"428 710 OFFCURVE",
"282 710 CURVE SMOOTH",
"127 710 OFFCURVE",
"24 618 OFFCURVE",
"24 479 CURVE SMOOTH",
"24 474 LINE",
"236 464 LINE",
"236 479 LINE SMOOTH",
"236 502 OFFCURVE",
"252 518 OFFCURVE",
"276 518 CURVE SMOOTH",
"297 518 OFFCURVE",
"311 506 OFFCURVE",
"311 487 CURVE SMOOTH",
"311 424 OFFCURVE",
"166 423 OFFCURVE",
"166 290 CURVE SMOOTH",
"166 268 OFFCURVE",
"166 261 OFFCURVE",
"166 224 CURVE"
);
},
{
closed = 1;
nodes = (
"330 -6 OFFCURVE",
"379 40 OFFCURVE",
"379 99 CURVE",
"379 156 OFFCURVE",
"330 202 OFFCURVE",
"273 202 CURVE SMOOTH",
"216 202 OFFCURVE",
"167 156 OFFCURVE",
"167 99 CURVE SMOOTH",
"167 40 OFFCURVE",
"214 -6 OFFCURVE",
"273 -6 CURVE SMOOTH"
);
}
);
width = 551;
},
{
layerId = "262880E7-CFE1-4BDA-902E-E24798F3240A";
paths = (
{
closed = 1;
nodes = (
"335 239 LINE",
"305 243 OFFCURVE",
"290 254 OFFCURVE",
"290 275 CURVE SMOOTH",
"290 346 OFFCURVE",
"471 378 OFFCURVE",
"471 546 CURVE SMOOTH",
"471 645 OFFCURVE",
"408 709 OFFCURVE",
"314 709 CURVE SMOOTH",
"219 709 OFFCURVE",
"155 645 OFFCURVE",
"155 550 CURVE SMOOTH",
"155 500 LINE",
"177 500 LINE",
"177 550 LINE SMOOTH",
"177 633 OFFCURVE",
"232 688 OFFCURVE",
"314 688 CURVE SMOOTH",
"395 688 OFFCURVE",
"449 633 OFFCURVE",
"449 549 CURVE SMOOTH",
"449 395 OFFCURVE",
"266 364 OFFCURVE",
"266 271 CURVE SMOOTH",
"266 235 OFFCURVE",
"294 213 OFFCURVE",
"335 215 CURVE"
);
},
{
closed = 1;
nodes = (
"321 5 OFFCURVE",
"340 23 OFFCURVE",
"340 46 CURVE SMOOTH",
"340 68 OFFCURVE",
"321 86 OFFCURVE",
"299 86 CURVE SMOOTH",
"277 86 OFFCURVE",
"258 68 OFFCURVE",
"258 46 CURVE SMOOTH",
"258 23 OFFCURVE",
"276 5 OFFCURVE",
"299 5 CURVE SMOOTH"
);
}
);
width = 627;
},
{
associatedMasterId = "4F25946F-63AC-42D6-8D55-01CF6A99025B";
layerId = "E56F6CC4-F9B5-46E1-BC01-FC7B34A3882B";
name = "DemiBold {119,100}";
paths = (
{
closed = 1;
nodes = (
"344 261 LINE",
"333 262 OFFCURVE",
"324 261 OFFCURVE",
"324 276 CURVE SMOOTH",
"324 341 OFFCURVE",
"489 355 OFFCURVE",
"489 519 CURVE SMOOTH",
"489 634 OFFCURVE",
"409 710 OFFCURVE",
"286 710 CURVE SMOOTH",
"161 710 OFFCURVE",
"74 630 OFFCURVE",
"74 512 CURVE SMOOTH",
"74 486 LINE",
"198 481 LINE",
"198 512 LINE SMOOTH",
"198 562 OFFCURVE",
"231 597 OFFCURVE",
"283 597 CURVE SMOOTH",
"333 597 OFFCURVE",
"364 565 OFFCURVE",
"364 516 CURVE SMOOTH",
"364 401 OFFCURVE",
"194 408 OFFCURVE",
"194 270 CURVE SMOOTH",
"194 214 OFFCURVE",
"222 166 OFFCURVE",
"332 182 CURVE"
);
},
{
closed = 1;
nodes = (
"313 -1 OFFCURVE",
"348 32 OFFCURVE",
"348 74 CURVE SMOOTH",
"348 115 OFFCURVE",
"313 148 OFFCURVE",
"272 148 CURVE SMOOTH",
"232 148 OFFCURVE",
"197 115 OFFCURVE",
"197 74 CURVE SMOOTH",
"197 32 OFFCURVE",
"230 -1 OFFCURVE",
"272 -1 CURVE SMOOTH"
);
}
);
width = 539;
}
);
unicode = 003F;
},
{
color = 1;
glyphname = quotedbl;
lastChange = "2016-10-17 08:10:56 +0000";
layers = (
{
layerId = "262880E7-CFE1-4BDA-902E-E24798F3240A";
paths = (
{
closed = 1;
nodes = (
"319 501 LINE",
"319 693 LINE",
"297 693 LINE",
"297 501 LINE"
);
},
{
closed = 1;
nodes = (
"209 501 LINE",
"209 693 LINE",
"187 693 LINE",
"187 501 LINE"
);
}
);
width = 506;
},
{
layerId = "4F25946F-63AC-42D6-8D55-01CF6A99025B";
paths = (
{
closed = 1;
nodes = (
"489 481 LINE",
"499 693 LINE",
"297 693 LINE",
"305 481 LINE"
);
},
{
closed = 1;
nodes = (
"219 481 LINE",
"229 693 LINE",
"27 693 LINE",
"37 481 LINE"
);
}
);
width = 526;
}
);
unicode = 0022;
},
{
color = 1;
glyphname = quotesingle;
lastChange = "2016-10-17 08:10:57 +0000";
layers = (
{
layerId = "262880E7-CFE1-4BDA-902E-E24798F3240A";
paths = (
{
closed = 1;
nodes = (
"209 697 LINE",
"187 697 LINE",
"187 507 LINE",
"209 507 LINE"
);
}
);
width = 396;
},
{
layerId = "4F25946F-63AC-42D6-8D55-01CF6A99025B";
paths = (
{
closed = 1;
nodes = (
"211 699 LINE",
"27 699 LINE",
"37 452 LINE",
"201 452 LINE"
);
}
);
width = 238;
}
);
unicode = 0027;
},
{
color = 1;
glyphname = semicolon;
lastChange = "2016-10-17 08:10:56 +0000";
layers = (
{
layerId = "262880E7-CFE1-4BDA-902E-E24798F3240A";
paths = (
{
closed = 1;
nodes = (
"228 370 OFFCURVE",
"247 388 OFFCURVE",
"247 411 CURVE",
"247 433 OFFCURVE",
"228 451 OFFCURVE",
"206 451 CURVE SMOOTH",
"184 451 OFFCURVE",
"165 433 OFFCURVE",
"165 411 CURVE SMOOTH",
"165 388 OFFCURVE",
"183 370 OFFCURVE",
"206 370 CURVE SMOOTH"
);
},
{
closed = 1;
nodes = (
"186 -60 LINE",
"222 147 LINE",
"200 147 LINE",
"165 -60 LINE"
);
}
);
width = 406;
},
{
layerId = "4F25946F-63AC-42D6-8D55-01CF6A99025B";
paths = (
{
closed = 1;
nodes = (
"188 288 OFFCURVE",
"237 334 OFFCURVE",
"237 393 CURVE",
"237 450 OFFCURVE",
"188 496 OFFCURVE",
"131 496 CURVE SMOOTH",
"74 496 OFFCURVE",
"25 450 OFFCURVE",
"25 393 CURVE SMOOTH",
"25 334 OFFCURVE",
"72 288 OFFCURVE",
"131 288 CURVE SMOOTH"
);
},
{
closed = 1;
nodes = (
"172 -46 LINE",
"223 183 LINE",
"53 182 LINE",
"34 -46 LINE"
);
}
);
width = 262;
}
);
unicode = 003B;
},
{
color = 1;
glyphname = slash;
lastChange = "2016-10-17 08:10:56 +0000";
layers = (
{
layerId = "262880E7-CFE1-4BDA-902E-E24798F3240A";
paths = (
{
closed = 1;
nodes = (
"121 0 LINE",
"259 700 LINE",
"237 700 LINE",
"99 0 LINE"
);
}
);
width = 358;
},
{
layerId = "4F25946F-63AC-42D6-8D55-01CF6A99025B";
paths = (
{
closed = 1;
nodes = (
"217 0 LINE",
"355 700 LINE",
"153 700 LINE",
"15 0 LINE"
);
}
);
width = 370;
}
);
unicode = 002F;
},
{
color = 1;
glyphname = quotesingle.alt;
lastChange = "2016-10-17 08:10:56 +0000";
layers = (
{
layerId = "262880E7-CFE1-4BDA-902E-E24798F3240A";
paths = (
{
closed = 1;
nodes = (
"209 699 LINE",
"187 699 LINE",
"187 507 LINE",
"209 507 LINE"
);
}
);
width = 396;
},
{
layerId = "4F25946F-63AC-42D6-8D55-01CF6A99025B";
paths = (
{
closed = 1;
nodes = (
"220 603 LINE",
"36 603 LINE",
"27 344 LINE",
"158 344 LINE"
);
}
);
width = 245;
}
);
},
{
color = 1;
glyphname = emdash;
lastChange = "2016-10-17 08:10:56 +0000";
layers = (
{
layerId = "262880E7-CFE1-4BDA-902E-E24798F3240A";
paths = (
{
closed = 1;
nodes = (
"542 251 LINE",
"542 272 LINE",
"134 272 LINE",
"134 251 LINE"
);
}
);
width = 676;
},
{
layerId = "4F25946F-63AC-42D6-8D55-01CF6A99025B";
paths = (
{
closed = 1;
nodes = (
"622 180 LINE",
"622 368 LINE",
"22 368 LINE",
"22 180 LINE"
);
}
);
width = 644;
}
);
unicode = 2014;
},
{
color = 1;
glyphname = hyphen;
lastChange = "2016-10-17 08:10:56 +0000";
layers = (
{
layerId = "4F25946F-63AC-42D6-8D55-01CF6A99025B";
paths = (
{
closed = 1;
nodes = (
"302 180 LINE",
"302 368 LINE",
"22 368 LINE",
"22 180 LINE"
);
}
);
width = 324;
},
{
layerId = "262880E7-CFE1-4BDA-902E-E24798F3240A";
paths = (
{
closed = 1;
nodes = (
"392 251 LINE",
"392 272 LINE",
"134 272 LINE",
"134 251 LINE"
);
}
);
width = 526;
}
);
unicode = 002D;
},
{
color = 1;
glyphname = dollar;
lastChange = "2016-10-17 08:10:56 +0000";
layers = (
{
layerId = "4F25946F-63AC-42D6-8D55-01CF6A99025B";
paths = (
{
closed = 1;
nodes = (
"448 -10 OFFCURVE",
"542 74 OFFCURVE",
"542 200 CURVE SMOOTH",
"542 312 OFFCURVE",
"468 381 OFFCURVE",
"355 425 CURVE SMOOTH",
"309 443 OFFCURVE",
"256 456 OFFCURVE",
"256 489 CURVE SMOOTH",
"256 503 OFFCURVE",
"266 518 OFFCURVE",
"290 518 CURVE SMOOTH",
"316 518 OFFCURVE",
"331 501 OFFCURVE",
"331 479 CURVE SMOOTH",
"331 464 LINE",
"543 474 LINE",
"543 479 LINE SMOOTH",
"543 617 OFFCURVE",
"436 710 OFFCURVE",
"284 710 CURVE SMOOTH",
"137 710 OFFCURVE",
"41 624 OFFCURVE",
"41 498 CURVE SMOOTH",
"41 389 OFFCURVE",
"114 318 OFFCURVE",
"228 275 CURVE SMOOTH",
"270 259 OFFCURVE",
"326 245 OFFCURVE",
"326 214 CURVE SMOOTH",
"326 201 OFFCURVE",
"317 182 OFFCURVE",
"291 182 CURVE SMOOTH",
"267 182 OFFCURVE",
"252 199 OFFCURVE",
"252 231 CURVE SMOOTH",
"252 236 LINE",
"29 226 LINE",
"29 221 LINE SMOOTH",
"29 83 OFFCURVE",
"135 -10 OFFCURVE",
"295 -10 CURVE SMOOTH"
);
},
{
closed = 1;
nodes = (
"366 -53 LINE",
"366 93 LINE",
"245 93 LINE",
"245 -53 LINE"
);
},
{
closed = 1;
nodes = (
"363 599 LINE",
"363 745 LINE",
"242 745 LINE",
"242 599 LINE"
);
}
);
width = 572;
},
{
layerId = "262880E7-CFE1-4BDA-902E-E24798F3240A";
paths = (
{
closed = 1;
nodes = (
"444 -9 OFFCURVE",
"508 50 OFFCURVE",
"508 149 CURVE SMOOTH",
"508 255 OFFCURVE",
"435 307 OFFCURVE",
"353 361 CURVE SMOOTH",
"272 414 OFFCURVE",
"208 459 OFFCURVE",
"208 552 CURVE SMOOTH",
"208 636 OFFCURVE",
"260 690 OFFCURVE",
"344 690 CURVE SMOOTH",
"428 690 OFFCURVE",
"480 637 OFFCURVE",
"480 550 CURVE SMOOTH",
"480 500 LINE",
"502 500 LINE",
"502 550 LINE SMOOTH",
"502 650 OFFCURVE",
"442 709 OFFCURVE",
"344 709 CURVE SMOOTH",
"246 709 OFFCURVE",
"186 649 OFFCURVE",
"186 553 CURVE SMOOTH",
"186 446 OFFCURVE",
"261 394 OFFCURVE",
"339 342 CURVE SMOOTH",
"416 291 OFFCURVE",
"486 244 OFFCURVE",
"486 148 CURVE SMOOTH",
"486 63 OFFCURVE",
"430 11 OFFCURVE",
"348 11 CURVE SMOOTH",
"260 11 OFFCURVE",
"214 64 OFFCURVE",
"214 150 CURVE SMOOTH",
"214 200 LINE",
"192 200 LINE",
"192 150 LINE SMOOTH",
"192 50 OFFCURVE",
"247 -9 OFFCURVE",
"349 -9 CURVE SMOOTH"
);
},
{
closed = 1;
nodes = (
"354 -88 LINE",
"354 2 LINE",
"331 2 LINE",
"331 -88 LINE"
);
},
{
closed = 1;
nodes = (
"354 702 LINE",
"354 792 LINE",
"331 792 LINE",
"331 702 LINE"
);
}
);
width = 694;
},
{
associatedMasterId = "4F25946F-63AC-42D6-8D55-01CF6A99025B";
layerId = "E869EA52-1DFA-43F8-82AD-AF9382669512";
name = "DemiBold{119,100}";
paths = (
{
closed = 1;
nodes = (
"387 -10 OFFCURVE",
"467 63 OFFCURVE",
"467 176 CURVE SMOOTH",
"467 286 OFFCURVE",
"394 347 OFFCURVE",
"295 395 CURVE SMOOTH",
"233 430 OFFCURVE",
"175 457 OFFCURVE",
"175 518 CURVE SMOOTH",
"175 565 OFFCURVE",
"204 598 OFFCURVE",
"256 598 CURVE SMOOTH",
"309 598 OFFCURVE",
"341 564 OFFCURVE",
"341 512 CURVE SMOOTH",
"341 481 LINE",
"465 486 LINE",
"465 512 LINE SMOOTH",
"465 632 OFFCURVE",
"380 710 OFFCURVE",
"253 710 CURVE SMOOTH",
"129 710 OFFCURVE",
"49 636 OFFCURVE",
"49 524 CURVE SMOOTH",
"49 415 OFFCURVE",
"123 353 OFFCURVE",
"221 306 CURVE SMOOTH",
"279 274 OFFCURVE",
"341 245 OFFCURVE",
"341 183 CURVE SMOOTH",
"341 137 OFFCURVE",
"311 103 OFFCURVE",
"259 103 CURVE SMOOTH",
"205 103 OFFCURVE",
"176 136 OFFCURVE",
"176 193 CURVE SMOOTH",
"176 219 LINE",
"46 214 LINE",
"46 188 LINE SMOOTH",
"46 68 OFFCURVE",
"128 -10 OFFCURVE",
"261 -10 CURVE SMOOTH"
);
},
{
closed = 1;
nodes = (
"306 -80 LINE",
"306 40 LINE",
"203 40 LINE",
"203 -80 LINE"
);
},
{
closed = 1;
nodes = (
"309 652 LINE",
"309 777 LINE",
"205 777 LINE",
"205 652 LINE"
);
}
);
width = 513;
}
);
unicode = 0024;
},
{
color = 1;
glyphname = at;
lastChange = "2016-10-17 08:10:56 +0000";
layers = (
{
layerId = "262880E7-CFE1-4BDA-902E-E24798F3240A";
paths = (
{
closed = 1;
nodes = (
"733 -68 OFFCURVE",
"895 92 OFFCURVE",
"895 290 CURVE SMOOTH",
"895 488 OFFCURVE",
"733 648 OFFCURVE",
"534 648 CURVE SMOOTH",
"335 648 OFFCURVE",
"173 488 OFFCURVE",
"173 290 CURVE SMOOTH",
"173 92 OFFCURVE",
"335 -68 OFFCURVE",
"534 -68 CURVE SMOOTH"
);
},
{
closed = 1;
nodes = (
"347 -50 OFFCURVE",
"195 102 OFFCURVE",
"195 290 CURVE SMOOTH",
"195 478 OFFCURVE",
"347 630 OFFCURVE",
"534 630 CURVE SMOOTH",
"721 630 OFFCURVE",
"873 478 OFFCURVE",
"873 290 CURVE SMOOTH",
"873 102 OFFCURVE",
"721 -50 OFFCURVE",
"534 -50 CURVE SMOOTH"
);
},
{
closed = 1;
nodes = (
"600 105 OFFCURVE",
"644 152 OFFCURVE",
"644 227 CURVE SMOOTH",
"644 369 LINE SMOOTH",
"644 444 OFFCURVE",
"600 491 OFFCURVE",
"528 491 CURVE SMOOTH",
"455 491 OFFCURVE",
"407 445 OFFCURVE",
"407 370 CURVE SMOOTH",
"407 226 LINE SMOOTH",
"407 151 OFFCURVE",
"455 105 OFFCURVE",
"528 105 CURVE SMOOTH"
);
},
{
closed = 1;
nodes = (
"463 121 OFFCURVE",
"424 161 OFFCURVE",
"424 226 CURVE SMOOTH",
"424 370 LINE SMOOTH",
"424 435 OFFCURVE",
"465 475 OFFCURVE",
"528 475 CURVE SMOOTH",
"592 475 OFFCURVE",
"633 435 OFFCURVE",
"633 370 CURVE SMOOTH",
"633 226 LINE SMOOTH",
"633 161 OFFCURVE",
"594 121 OFFCURVE",
"528 121 CURVE SMOOTH"
);
},
{
closed = 1;
nodes = (
"649 110 LINE",
"649 486 LINE",
"633 486 LINE",
"633 110 LINE"
);
}
);
width = 1068;
},
{
layerId = "4F25946F-63AC-42D6-8D55-01CF6A99025B";
paths = (
{
closed = 1;
nodes = (
"585 -53 OFFCURVE",
"747 108 OFFCURVE",
"747 306 CURVE SMOOTH",
"747 504 OFFCURVE",
"585 665 OFFCURVE",
"387 665 CURVE SMOOTH",
"189 665 OFFCURVE",
"27 504 OFFCURVE",
"27 306 CURVE SMOOTH",
"27 108 OFFCURVE",
"189 -53 OFFCURVE",
"387 -53 CURVE SMOOTH"
);
},
{
closed = 1;
nodes = (
"252 69 OFFCURVE",
"152 170 OFFCURVE",
"152 306 CURVE SMOOTH",
"152 442 OFFCURVE",
"252 543 OFFCURVE",
"387 543 CURVE SMOOTH",
"522 543 OFFCURVE",
"622 442 OFFCURVE",
"622 306 CURVE SMOOTH",
"622 170 OFFCURVE",
"522 69 OFFCURVE",
"387 69 CURVE SMOOTH"
);
},
{
closed = 1;
nodes = (
"408 176 OFFCURVE",
"451 236 OFFCURVE",
"451 283 CURVE SMOOTH",
"451 290 LINE SMOOTH",
"451 295 OFFCURVE",
"443 419 OFFCURVE",
"351 419 CURVE",
"296 419 OFFCURVE",
"263 392 OFFCURVE",
"263 345 CURVE SMOOTH",
"263 255 LINE SMOOTH",
"263 213 OFFCURVE",
"288 176 OFFCURVE",
"344 176 CURVE SMOOTH"
);
},
{
closed = 1;
nodes = (
"369 258 OFFCURVE",
"361 265 OFFCURVE",
"361 277 CURVE SMOOTH",
"361 320 LINE SMOOTH",
"361 332 OFFCURVE",
"369 340 OFFCURVE",
"381 340 CURVE SMOOTH",
"393 340 OFFCURVE",
"402 332 OFFCURVE",
"402 320 CURVE SMOOTH",
"402 277 LINE SMOOTH",
"402 265 OFFCURVE",
"393 258 OFFCURVE",
"381 258 CURVE SMOOTH"
);
},
{
closed = 1;
nodes = (
"500 180 LINE",
"500 416 LINE",
"402 416 LINE",
"402 180 LINE"
);
}
);
width = 774;
}
);
unicode = 0040;
},
{
color = 1;
glyphname = copyright;
lastChange = "2016-10-17 08:10:56 +0000";
layers = (
{
layerId = "262880E7-CFE1-4BDA-902E-E24798F3240A";
paths = (
{
closed = 1;
nodes = (
"733 -68 OFFCURVE",
"895 92 OFFCURVE",
"895 290 CURVE SMOOTH",
"895 488 OFFCURVE",
"733 648 OFFCURVE",
"534 648 CURVE SMOOTH",
"335 648 OFFCURVE",
"173 488 OFFCURVE",
"173 290 CURVE SMOOTH",
"173 92 OFFCURVE",
"335 -68 OFFCURVE",
"534 -68 CURVE SMOOTH"
);
},
{
closed = 1;
nodes = (
"347 -50 OFFCURVE",
"195 102 OFFCURVE",
"195 290 CURVE SMOOTH",
"195 478 OFFCURVE",
"347 630 OFFCURVE",
"534 630 CURVE SMOOTH",
"721 630 OFFCURVE",
"873 478 OFFCURVE",
"873 290 CURVE SMOOTH",
"873 102 OFFCURVE",
"721 -50 OFFCURVE",
"534 -50 CURVE SMOOTH"
);
},
{
closed = 1;
nodes = (
"606 103 OFFCURVE",
"652 148 OFFCURVE",
"652 223 CURVE SMOOTH",
"652 225 LINE",
"636 225 LINE",
"636 223 LINE SMOOTH",
"636 158 OFFCURVE",
"597 118 OFFCURVE",
"531 118 CURVE SMOOTH",
"466 118 OFFCURVE",
"427 158 OFFCURVE",
"427 223 CURVE SMOOTH",
"427 367 LINE SMOOTH",
"427 433 OFFCURVE",
"468 472 OFFCURVE",
"531 472 CURVE SMOOTH",
"595 472 OFFCURVE",
"636 433 OFFCURVE",
"636 367 CURVE SMOOTH",
"636 366 LINE",
"652 366 LINE",
"652 367 LINE SMOOTH",
"652 442 OFFCURVE",
"606 487 OFFCURVE",
"531 487 CURVE SMOOTH",
"457 487 OFFCURVE",
"410 442 OFFCURVE",
"410 367 CURVE SMOOTH",
"410 223 LINE SMOOTH",
"410 148 OFFCURVE",
"457 103 OFFCURVE",
"531 103 CURVE SMOOTH"
);
}
);
width = 1068;
},
{
layerId = "4F25946F-63AC-42D6-8D55-01CF6A99025B";
paths = (
{
closed = 1;
nodes = (
"585 -53 OFFCURVE",
"747 108 OFFCURVE",
"747 306 CURVE SMOOTH",
"747 504 OFFCURVE",
"585 665 OFFCURVE",
"387 665 CURVE SMOOTH",
"189 665 OFFCURVE",
"27 504 OFFCURVE",
"27 306 CURVE SMOOTH",
"27 108 OFFCURVE",
"189 -53 OFFCURVE",
"387 -53 CURVE SMOOTH"
);
},
{
closed = 1;
nodes = (
"252 69 OFFCURVE",
"152 170 OFFCURVE",
"152 306 CURVE SMOOTH",
"152 442 OFFCURVE",
"252 543 OFFCURVE",
"387 543 CURVE SMOOTH",
"522 543 OFFCURVE",
"622 442 OFFCURVE",
"622 306 CURVE SMOOTH",
"622 170 OFFCURVE",
"522 69 OFFCURVE",
"387 69 CURVE SMOOTH"
);
},
{
closed = 1;
nodes = (
"459 170 OFFCURVE",
"507 214 OFFCURVE",
"512 290 CURVE",
"512 291 LINE",
"407 291 LINE",
"407 277 LINE SMOOTH",
"407 265 OFFCURVE",
"398 257 OFFCURVE",
"385 257 CURVE SMOOTH",
"372 257 OFFCURVE",
"363 265 OFFCURVE",
"363 277 CURVE",
"363 323 LINE",
"363 336 OFFCURVE",
"372 344 OFFCURVE",
"385 344 CURVE SMOOTH",
"398 344 OFFCURVE",
"407 336 OFFCURVE",
"407 323 CURVE",
"407 313 LINE",
"512 313 LINE",
"512 314 LINE",
"511 386 OFFCURVE",
"464 428 OFFCURVE",
"384 428 CURVE SMOOTH",
"304 428 OFFCURVE",
"257 382 OFFCURVE",
"257 302 CURVE SMOOTH",
"257 298 LINE SMOOTH",
"257 217 OFFCURVE",
"304 170 OFFCURVE",
"384 170 CURVE SMOOTH"
);
}
);
width = 774;
}
);
unicode = 00A9;
},
{
color = 1;
glyphname = registered;
lastChange = "2016-10-17 08:10:55 +0000";
layers = (
{
layerId = "262880E7-CFE1-4BDA-902E-E24798F3240A";
paths = (
{
closed = 1;
nodes = (
"733 -68 OFFCURVE",
"895 92 OFFCURVE",
"895 290 CURVE SMOOTH",
"895 488 OFFCURVE",
"733 648 OFFCURVE",
"534 648 CURVE SMOOTH",
"335 648 OFFCURVE",
"173 488 OFFCURVE",
"173 290 CURVE SMOOTH",
"173 92 OFFCURVE",
"335 -68 OFFCURVE",
"534 -68 CURVE SMOOTH"
);
},
{
closed = 1;
nodes = (
"347 -50 OFFCURVE",
"195 102 OFFCURVE",
"195 290 CURVE SMOOTH",
"195 478 OFFCURVE",
"347 630 OFFCURVE",
"534 630 CURVE SMOOTH",
"721 630 OFFCURVE",
"873 478 OFFCURVE",
"873 290 CURVE SMOOTH",
"873 102 OFFCURVE",
"721 -50 OFFCURVE",
"534 -50 CURVE SMOOTH"
);
},
{
closed = 1;
nodes = (
"473 104 LINE",
"473 488 LINE",
"545 488 LINE SMOOTH",
"601 488 OFFCURVE",
"636 452 OFFCURVE",
"636 393 CURVE SMOOTH",
"636 334 OFFCURVE",
"601 298 OFFCURVE",
"545 298 CURVE SMOOTH",
"470 298 LINE",
"470 286 LINE",
"545 286 LINE SMOOTH",
"608 287 OFFCURVE",
"648 327 OFFCURVE",
"648 393 CURVE SMOOTH",
"648 459 OFFCURVE",
"608 499 OFFCURVE",
"545 499 CURVE SMOOTH",
"460 499 LINE",
"460 104 LINE"
);
},
{
closed = 1;
nodes = (
"622 104 LINE",
"557 296 LINE",
"546 292 LINE",
"609 104 LINE"
);
}
